%TF.GenerationSoftware,KiCad,Pcbnew,9.0.6*%
%TF.CreationDate,2025-11-24T22:39:34+01:00*%
%TF.ProjectId,gift,67696674-2e6b-4696-9361-645f70636258,rev?*%
%TF.SameCoordinates,Original*%
%TF.FileFunction,Soldermask,Top*%
%TF.FilePolarity,Negative*%
%FSLAX46Y46*%
G04 Gerber Fmt 4.6, Leading zero omitted, Abs format (unit mm)*
G04 Created by KiCad (PCBNEW 9.0.6) date 2025-11-24 22:39:34*
%MOMM*%
%LPD*%
G01*
G04 APERTURE LIST*
G04 Aperture macros list*
%AMRoundRect*
0 Rectangle with rounded corners*
0 $1 Rounding radius*
0 $2 $3 $4 $5 $6 $7 $8 $9 X,Y pos of 4 corners*
0 Add a 4 corners polygon primitive as box body*
4,1,4,$2,$3,$4,$5,$6,$7,$8,$9,$2,$3,0*
0 Add four circle primitives for the rounded corners*
1,1,$1+$1,$2,$3*
1,1,$1+$1,$4,$5*
1,1,$1+$1,$6,$7*
1,1,$1+$1,$8,$9*
0 Add four rect primitives between the rounded corners*
20,1,$1+$1,$2,$3,$4,$5,0*
20,1,$1+$1,$4,$5,$6,$7,0*
20,1,$1+$1,$6,$7,$8,$9,0*
20,1,$1+$1,$8,$9,$2,$3,0*%
%AMFreePoly0*
4,1,23,0.500000,-0.750000,0.000000,-0.750000,0.000000,-0.745722,-0.065263,-0.745722,-0.191342,-0.711940,-0.304381,-0.646677,-0.396677,-0.554381,-0.461940,-0.441342,-0.495722,-0.315263,-0.495722,-0.250000,-0.500000,-0.250000,-0.500000,0.250000,-0.495722,0.250000,-0.495722,0.315263,-0.461940,0.441342,-0.396677,0.554381,-0.304381,0.646677,-0.191342,0.711940,-0.065263,0.745722,0.000000,0.745722,
0.000000,0.750000,0.500000,0.750000,0.500000,-0.750000,0.500000,-0.750000,$1*%
%AMFreePoly1*
4,1,23,0.000000,0.745722,0.065263,0.745722,0.191342,0.711940,0.304381,0.646677,0.396677,0.554381,0.461940,0.441342,0.495722,0.315263,0.495722,0.250000,0.500000,0.250000,0.500000,-0.250000,0.495722,-0.250000,0.495722,-0.315263,0.461940,-0.441342,0.396677,-0.554381,0.304381,-0.646677,0.191342,-0.711940,0.065263,-0.745722,0.000000,-0.745722,0.000000,-0.750000,-0.500000,-0.750000,
-0.500000,0.750000,0.000000,0.750000,0.000000,0.745722,0.000000,0.745722,$1*%
G04 Aperture macros list end*
%ADD10RoundRect,0.159000X0.159000X0.189000X-0.159000X0.189000X-0.159000X-0.189000X0.159000X-0.189000X0*%
%ADD11RoundRect,0.239000X-0.239000X-0.274000X0.239000X-0.274000X0.239000X0.274000X-0.239000X0.274000X0*%
%ADD12RoundRect,0.266521X0.671479X-0.346479X0.671479X0.346479X-0.671479X0.346479X-0.671479X-0.346479X0*%
%ADD13RoundRect,0.219000X-0.294000X0.219000X-0.294000X-0.219000X0.294000X-0.219000X0.294000X0.219000X0*%
%ADD14C,1.500000*%
%ADD15RoundRect,0.219000X0.294000X-0.219000X0.294000X0.219000X-0.294000X0.219000X-0.294000X-0.219000X0*%
%ADD16RoundRect,0.244000X-0.244000X-0.269000X0.244000X-0.269000X0.244000X0.269000X-0.244000X0.269000X0*%
%ADD17RoundRect,0.269000X0.494000X-0.269000X0.494000X0.269000X-0.494000X0.269000X-0.494000X-0.269000X0*%
%ADD18RoundRect,0.219000X-0.219000X-0.294000X0.219000X-0.294000X0.219000X0.294000X-0.219000X0.294000X0*%
%ADD19O,2.050000X0.590000*%
%ADD20RoundRect,0.159000X-0.189000X0.159000X-0.189000X-0.159000X0.189000X-0.159000X0.189000X0.159000X0*%
%ADD21RoundRect,0.150000X-0.590000X-0.150000X0.590000X-0.150000X0.590000X0.150000X-0.590000X0.150000X0*%
%ADD22RoundRect,0.244000X0.269000X-0.244000X0.269000X0.244000X-0.269000X0.244000X-0.269000X-0.244000X0*%
%ADD23R,1.700000X1.700000*%
%ADD24C,1.700000*%
%ADD25RoundRect,0.269000X-0.494000X0.269000X-0.494000X-0.269000X0.494000X-0.269000X0.494000X0.269000X0*%
%ADD26R,0.400000X0.280000*%
%ADD27R,0.400000X0.220000*%
%ADD28R,0.220000X0.400000*%
%ADD29RoundRect,0.150000X0.150000X-0.590000X0.150000X0.590000X-0.150000X0.590000X-0.150000X-0.590000X0*%
%ADD30RoundRect,0.266521X0.346479X0.671479X-0.346479X0.671479X-0.346479X-0.671479X0.346479X-0.671479X0*%
%ADD31RoundRect,0.150000X0.590000X0.150000X-0.590000X0.150000X-0.590000X-0.150000X0.590000X-0.150000X0*%
%ADD32FreePoly0,0.000000*%
%ADD33FreePoly1,0.000000*%
%ADD34R,1.000000X1.000000*%
%ADD35O,2.000000X0.300000*%
%ADD36O,0.300000X2.000000*%
%ADD37RoundRect,0.159000X0.189000X-0.159000X0.189000X0.159000X-0.189000X0.159000X-0.189000X-0.159000X0*%
%ADD38R,1.000000X1.720000*%
%ADD39RoundRect,0.266521X-0.671479X0.346479X-0.671479X-0.346479X0.671479X-0.346479X0.671479X0.346479X0*%
%ADD40RoundRect,0.159000X-0.159000X-0.189000X0.159000X-0.189000X0.159000X0.189000X-0.159000X0.189000X0*%
%ADD41O,0.360000X0.610000*%
%ADD42R,1.600000X1.000000*%
%ADD43FreePoly0,90.000000*%
%ADD44FreePoly1,90.000000*%
%ADD45RoundRect,0.010000X-0.150000X-0.150000X0.150000X-0.150000X0.150000X0.150000X-0.150000X0.150000X0*%
%ADD46RoundRect,0.219000X0.219000X0.294000X-0.219000X0.294000X-0.219000X-0.294000X0.219000X-0.294000X0*%
G04 APERTURE END LIST*
%TO.C,JP2*%
G36*
X153700000Y-112010000D02*
G01*
X154000000Y-112010000D01*
X154000000Y-113510000D01*
X153700000Y-113510000D01*
X153700000Y-112010000D01*
G37*
%TO.C,JP3*%
G36*
X150120000Y-111990000D02*
G01*
X150420000Y-111990000D01*
X150420000Y-113490000D01*
X150120000Y-113490000D01*
X150120000Y-111990000D01*
G37*
%TO.C,JP1*%
G36*
X167081285Y-118216837D02*
G01*
X168581285Y-118216837D01*
X168581285Y-117916837D01*
X167081285Y-117916837D01*
X167081285Y-118216837D01*
G37*
%TD*%
D10*
%TO.C,R20*%
X140500000Y-115350000D03*
X139500000Y-115350000D03*
%TD*%
%TO.C,R18*%
X140050000Y-114450000D03*
X139050000Y-114450000D03*
%TD*%
D11*
%TO.C,D2*%
X136150000Y-114150000D03*
X137730000Y-114150000D03*
%TD*%
%TO.C,D1*%
X139370000Y-116700000D03*
X140950000Y-116700000D03*
%TD*%
D12*
%TO.C,C15*%
X150100000Y-96120000D03*
X150100000Y-99080000D03*
%TD*%
D13*
%TO.C,R16*%
X152150000Y-98220000D03*
X152150000Y-96580000D03*
%TD*%
D14*
%TO.C,TP10*%
X135000000Y-103300000D03*
%TD*%
%TO.C,TP6*%
X137400000Y-112000000D03*
%TD*%
%TO.C,TP5*%
X139200000Y-95600000D03*
%TD*%
D15*
%TO.C,R17*%
X151200000Y-109820000D03*
X151200000Y-108180000D03*
%TD*%
D16*
%TO.C,C14*%
X167320000Y-106600000D03*
X168880000Y-106600000D03*
%TD*%
D17*
%TO.C,C7*%
X151670000Y-104930000D03*
X151670000Y-103030000D03*
%TD*%
D18*
%TO.C,R2*%
X158321285Y-97689337D03*
X159961285Y-97689337D03*
%TD*%
D19*
%TO.C,U2*%
X164721285Y-101014337D03*
X164721285Y-102294337D03*
X164721285Y-103554337D03*
X164721285Y-104824337D03*
X170261285Y-104824337D03*
X170261285Y-103554337D03*
X170261285Y-102294337D03*
X170261285Y-101014337D03*
%TD*%
D20*
%TO.C,C11*%
X154400000Y-109100000D03*
X154400000Y-110100000D03*
%TD*%
D21*
%TO.C,Q3*%
X165831285Y-110091837D03*
X165831285Y-111991837D03*
X167711285Y-111041837D03*
%TD*%
D10*
%TO.C,C4*%
X137490000Y-109980000D03*
X136490000Y-109980000D03*
%TD*%
D22*
%TO.C,C1*%
X166666285Y-99519337D03*
X166666285Y-97959337D03*
%TD*%
D23*
%TO.C,J1*%
X152625000Y-115900000D03*
D24*
X155165000Y-115900000D03*
%TD*%
D25*
%TO.C,C2*%
X169296285Y-113631837D03*
X169296285Y-115531837D03*
%TD*%
D26*
%TO.C,U4*%
X172246285Y-114841837D03*
D27*
X172246285Y-114341837D03*
X172246285Y-113841837D03*
D28*
X171646285Y-113741837D03*
D27*
X171046285Y-113841837D03*
X171046285Y-114341837D03*
X171046285Y-114841837D03*
D28*
X171646285Y-114941837D03*
%TD*%
D23*
%TO.C,U5*%
X131891285Y-96851837D03*
D24*
X131891285Y-99391837D03*
X131891285Y-101931837D03*
X131891285Y-104471837D03*
X131891285Y-107011837D03*
X131891285Y-109551837D03*
X131891285Y-112091837D03*
X131891285Y-114631837D03*
%TD*%
D13*
%TO.C,R15*%
X155600000Y-108080000D03*
X155600000Y-109720000D03*
%TD*%
D29*
%TO.C,Q5*%
X163831285Y-119341837D03*
X165731285Y-119341837D03*
X164781285Y-117461837D03*
%TD*%
D30*
%TO.C,C9*%
X144220000Y-96720000D03*
X141260000Y-96720000D03*
%TD*%
D31*
%TO.C,Q6*%
X136880000Y-97700000D03*
X136880000Y-95800000D03*
X135000000Y-96750000D03*
%TD*%
D32*
%TO.C,JP2*%
X153200000Y-112760000D03*
D33*
X154500000Y-112760000D03*
%TD*%
D10*
%TO.C,C10*%
X152010000Y-106260000D03*
X151010000Y-106260000D03*
%TD*%
D34*
%TO.C,TP1*%
X178000000Y-120750000D03*
%TD*%
D35*
%TO.C,U6*%
X149250000Y-108750000D03*
X149250000Y-108250000D03*
X149250000Y-107750000D03*
X149250000Y-107250000D03*
X149250000Y-106750000D03*
X149250000Y-106250000D03*
X149250000Y-105750000D03*
X149250000Y-105250000D03*
X149250000Y-104750000D03*
X149250000Y-104250000D03*
X149250000Y-103750000D03*
X149250000Y-103250000D03*
X149250000Y-102750000D03*
X149250000Y-102250000D03*
X149250000Y-101750000D03*
X149250000Y-101250000D03*
D36*
X147250000Y-99250000D03*
X146750000Y-99250000D03*
X146250000Y-99250000D03*
X145750000Y-99250000D03*
X145250000Y-99250000D03*
X144750000Y-99250000D03*
X144250000Y-99250000D03*
X143750000Y-99250000D03*
X143250000Y-99250000D03*
X142750000Y-99250000D03*
X142250000Y-99250000D03*
X141750000Y-99250000D03*
X141250000Y-99250000D03*
X140750000Y-99250000D03*
X140250000Y-99250000D03*
X139750000Y-99250000D03*
D35*
X137750000Y-101250000D03*
X137750000Y-101750000D03*
X137750000Y-102250000D03*
X137750000Y-102750000D03*
X137750000Y-103250000D03*
X137750000Y-103750000D03*
X137750000Y-104250000D03*
X137750000Y-104750000D03*
X137750000Y-105250000D03*
X137750000Y-105750000D03*
X137750000Y-106250000D03*
X137750000Y-106750000D03*
X137750000Y-107250000D03*
X137750000Y-107750000D03*
X137750000Y-108250000D03*
X137750000Y-108750000D03*
D36*
X139750000Y-110750000D03*
X140250000Y-110750000D03*
X140750000Y-110750000D03*
X141250000Y-110750000D03*
X141750000Y-110750000D03*
X142250000Y-110750000D03*
X142750000Y-110750000D03*
X143250000Y-110750000D03*
X143750000Y-110750000D03*
X144250000Y-110750000D03*
X144750000Y-110750000D03*
X145250000Y-110750000D03*
X145750000Y-110750000D03*
X146250000Y-110750000D03*
X146750000Y-110750000D03*
X147250000Y-110750000D03*
%TD*%
D37*
%TO.C,C5*%
X137030000Y-100030000D03*
X137030000Y-99030000D03*
%TD*%
D15*
%TO.C,R5*%
X169806285Y-119741837D03*
X169806285Y-118101837D03*
%TD*%
D38*
%TO.C,U1*%
X156370000Y-112480000D03*
X158030000Y-112480000D03*
%TD*%
D15*
%TO.C,R13*%
X135791285Y-100721837D03*
X135791285Y-99081837D03*
%TD*%
D20*
%TO.C,C3*%
X148140000Y-110710000D03*
X148140000Y-111710000D03*
%TD*%
D39*
%TO.C,C12*%
X160000000Y-108100000D03*
X160000000Y-111060000D03*
%TD*%
D34*
%TO.C,TP2*%
X171500000Y-119500000D03*
%TD*%
D15*
%TO.C,R12*%
X134401285Y-100731837D03*
X134401285Y-99091837D03*
%TD*%
%TO.C,R1*%
X161266285Y-99209337D03*
X161266285Y-97569337D03*
%TD*%
D40*
%TO.C,C6*%
X146300000Y-97590000D03*
X147300000Y-97590000D03*
%TD*%
D18*
%TO.C,R9*%
X142820000Y-113020000D03*
X144460000Y-113020000D03*
%TD*%
D17*
%TO.C,C8*%
X153770000Y-104940000D03*
X153770000Y-103040000D03*
%TD*%
D41*
%TO.C,U3*%
X158200000Y-108320000D03*
X157550000Y-108320000D03*
X156900000Y-108320000D03*
X156900000Y-110380000D03*
X157550000Y-110380000D03*
X158200000Y-110380000D03*
D42*
X157550000Y-109350000D03*
%TD*%
D13*
%TO.C,R8*%
X163646285Y-113701837D03*
X163646285Y-115341837D03*
%TD*%
D32*
%TO.C,JP3*%
X149620000Y-112740000D03*
D33*
X150920000Y-112740000D03*
%TD*%
D43*
%TO.C,JP1*%
X167831285Y-118716837D03*
D44*
X167831285Y-117416837D03*
%TD*%
D30*
%TO.C,C13*%
X160180000Y-105980000D03*
X157220000Y-105980000D03*
%TD*%
D13*
%TO.C,R3*%
X164126285Y-110621837D03*
X164126285Y-112261837D03*
%TD*%
D23*
%TO.C,J4*%
X152160000Y-119500000D03*
D24*
X149620000Y-119500000D03*
X147080000Y-119500000D03*
X144540000Y-119500000D03*
X142000000Y-119500000D03*
%TD*%
D13*
%TO.C,R14*%
X154200000Y-106380000D03*
X154200000Y-108020000D03*
%TD*%
D18*
%TO.C,R6*%
X142780000Y-114410000D03*
X144420000Y-114410000D03*
%TD*%
D15*
%TO.C,R7*%
X162616285Y-102584337D03*
X162616285Y-100944337D03*
%TD*%
D23*
%TO.C,J3*%
X156000000Y-119500000D03*
D24*
X158540000Y-119500000D03*
%TD*%
D34*
%TO.C,TP4*%
X171500000Y-117500000D03*
%TD*%
D45*
%TO.C,AE1*%
X178742500Y-120661837D03*
X198852500Y-114961837D03*
%TD*%
D18*
%TO.C,R10*%
X145720000Y-113030000D03*
X147360000Y-113030000D03*
%TD*%
D34*
%TO.C,TP3*%
X178000000Y-116000000D03*
%TD*%
D31*
%TO.C,Q4*%
X167216285Y-115551837D03*
X167216285Y-113651837D03*
X165336285Y-114601837D03*
%TD*%
%TO.C,Q1*%
X160871285Y-102689337D03*
X160871285Y-100789337D03*
X158991285Y-101739337D03*
%TD*%
D21*
%TO.C,Q2*%
X163011285Y-97564337D03*
X163011285Y-99464337D03*
X164891285Y-98514337D03*
%TD*%
D13*
%TO.C,R11*%
X155600000Y-105280000D03*
X155600000Y-106920000D03*
%TD*%
D46*
%TO.C,R4*%
X153761285Y-101551837D03*
X152121285Y-101551837D03*
%TD*%
M02*
