%TF.GenerationSoftware,KiCad,Pcbnew,9.0.6*%
%TF.CreationDate,2025-11-24T22:39:34+01:00*%
%TF.ProjectId,gift,67696674-2e6b-4696-9361-645f70636258,rev?*%
%TF.SameCoordinates,Original*%
%TF.FileFunction,Copper,L1,Top*%
%TF.FilePolarity,Positive*%
%FSLAX46Y46*%
G04 Gerber Fmt 4.6, Leading zero omitted, Abs format (unit mm)*
G04 Created by KiCad (PCBNEW 9.0.6) date 2025-11-24 22:39:34*
%MOMM*%
%LPD*%
G01*
G04 APERTURE LIST*
G04 Aperture macros list*
%AMRoundRect*
0 Rectangle with rounded corners*
0 $1 Rounding radius*
0 $2 $3 $4 $5 $6 $7 $8 $9 X,Y pos of 4 corners*
0 Add a 4 corners polygon primitive as box body*
4,1,4,$2,$3,$4,$5,$6,$7,$8,$9,$2,$3,0*
0 Add four circle primitives for the rounded corners*
1,1,$1+$1,$2,$3*
1,1,$1+$1,$4,$5*
1,1,$1+$1,$6,$7*
1,1,$1+$1,$8,$9*
0 Add four rect primitives between the rounded corners*
20,1,$1+$1,$2,$3,$4,$5,0*
20,1,$1+$1,$4,$5,$6,$7,0*
20,1,$1+$1,$6,$7,$8,$9,0*
20,1,$1+$1,$8,$9,$2,$3,0*%
%AMFreePoly0*
4,1,23,0.500000,-0.750000,0.000000,-0.750000,0.000000,-0.745722,-0.065263,-0.745722,-0.191342,-0.711940,-0.304381,-0.646677,-0.396677,-0.554381,-0.461940,-0.441342,-0.495722,-0.315263,-0.495722,-0.250000,-0.500000,-0.250000,-0.500000,0.250000,-0.495722,0.250000,-0.495722,0.315263,-0.461940,0.441342,-0.396677,0.554381,-0.304381,0.646677,-0.191342,0.711940,-0.065263,0.745722,0.000000,0.745722,
0.000000,0.750000,0.500000,0.750000,0.500000,-0.750000,0.500000,-0.750000,$1*%
%AMFreePoly1*
4,1,23,0.000000,0.745722,0.065263,0.745722,0.191342,0.711940,0.304381,0.646677,0.396677,0.554381,0.461940,0.441342,0.495722,0.315263,0.495722,0.250000,0.500000,0.250000,0.500000,-0.250000,0.495722,-0.250000,0.495722,-0.315263,0.461940,-0.441342,0.396677,-0.554381,0.304381,-0.646677,0.191342,-0.711940,0.065263,-0.745722,0.000000,-0.745722,0.000000,-0.750000,-0.500000,-0.750000,
-0.500000,0.750000,0.000000,0.750000,0.000000,0.745722,0.000000,0.745722,$1*%
G04 Aperture macros list end*
%TA.AperFunction,EtchedComponent*%
%ADD10C,0.010000*%
%TD*%
%TA.AperFunction,SMDPad,CuDef*%
%ADD11RoundRect,0.140000X0.140000X0.170000X-0.140000X0.170000X-0.140000X-0.170000X0.140000X-0.170000X0*%
%TD*%
%TA.AperFunction,SMDPad,CuDef*%
%ADD12RoundRect,0.220000X-0.220000X-0.255000X0.220000X-0.255000X0.220000X0.255000X-0.220000X0.255000X0*%
%TD*%
%TA.AperFunction,SMDPad,CuDef*%
%ADD13RoundRect,0.250000X0.650000X-0.325000X0.650000X0.325000X-0.650000X0.325000X-0.650000X-0.325000X0*%
%TD*%
%TA.AperFunction,SMDPad,CuDef*%
%ADD14RoundRect,0.200000X-0.275000X0.200000X-0.275000X-0.200000X0.275000X-0.200000X0.275000X0.200000X0*%
%TD*%
%TA.AperFunction,SMDPad,CuDef*%
%ADD15C,1.500000*%
%TD*%
%TA.AperFunction,SMDPad,CuDef*%
%ADD16RoundRect,0.200000X0.275000X-0.200000X0.275000X0.200000X-0.275000X0.200000X-0.275000X-0.200000X0*%
%TD*%
%TA.AperFunction,SMDPad,CuDef*%
%ADD17RoundRect,0.225000X-0.225000X-0.250000X0.225000X-0.250000X0.225000X0.250000X-0.225000X0.250000X0*%
%TD*%
%TA.AperFunction,SMDPad,CuDef*%
%ADD18RoundRect,0.250000X0.475000X-0.250000X0.475000X0.250000X-0.475000X0.250000X-0.475000X-0.250000X0*%
%TD*%
%TA.AperFunction,SMDPad,CuDef*%
%ADD19RoundRect,0.200000X-0.200000X-0.275000X0.200000X-0.275000X0.200000X0.275000X-0.200000X0.275000X0*%
%TD*%
%TA.AperFunction,SMDPad,CuDef*%
%ADD20O,2.050000X0.590000*%
%TD*%
%TA.AperFunction,SMDPad,CuDef*%
%ADD21RoundRect,0.140000X-0.170000X0.140000X-0.170000X-0.140000X0.170000X-0.140000X0.170000X0.140000X0*%
%TD*%
%TA.AperFunction,SMDPad,CuDef*%
%ADD22RoundRect,0.150000X-0.590000X-0.150000X0.590000X-0.150000X0.590000X0.150000X-0.590000X0.150000X0*%
%TD*%
%TA.AperFunction,SMDPad,CuDef*%
%ADD23RoundRect,0.225000X0.250000X-0.225000X0.250000X0.225000X-0.250000X0.225000X-0.250000X-0.225000X0*%
%TD*%
%TA.AperFunction,ComponentPad*%
%ADD24R,1.700000X1.700000*%
%TD*%
%TA.AperFunction,ComponentPad*%
%ADD25C,1.700000*%
%TD*%
%TA.AperFunction,SMDPad,CuDef*%
%ADD26RoundRect,0.250000X-0.475000X0.250000X-0.475000X-0.250000X0.475000X-0.250000X0.475000X0.250000X0*%
%TD*%
%TA.AperFunction,SMDPad,CuDef*%
%ADD27R,0.400000X0.280000*%
%TD*%
%TA.AperFunction,SMDPad,CuDef*%
%ADD28R,0.400000X0.220000*%
%TD*%
%TA.AperFunction,SMDPad,CuDef*%
%ADD29R,0.220000X0.400000*%
%TD*%
%TA.AperFunction,SMDPad,CuDef*%
%ADD30RoundRect,0.150000X0.150000X-0.590000X0.150000X0.590000X-0.150000X0.590000X-0.150000X-0.590000X0*%
%TD*%
%TA.AperFunction,SMDPad,CuDef*%
%ADD31RoundRect,0.250000X0.325000X0.650000X-0.325000X0.650000X-0.325000X-0.650000X0.325000X-0.650000X0*%
%TD*%
%TA.AperFunction,SMDPad,CuDef*%
%ADD32RoundRect,0.150000X0.590000X0.150000X-0.590000X0.150000X-0.590000X-0.150000X0.590000X-0.150000X0*%
%TD*%
%TA.AperFunction,SMDPad,CuDef*%
%ADD33FreePoly0,0.000000*%
%TD*%
%TA.AperFunction,SMDPad,CuDef*%
%ADD34FreePoly1,0.000000*%
%TD*%
%TA.AperFunction,SMDPad,CuDef*%
%ADD35R,1.000000X1.000000*%
%TD*%
%TA.AperFunction,SMDPad,CuDef*%
%ADD36O,2.000000X0.300000*%
%TD*%
%TA.AperFunction,SMDPad,CuDef*%
%ADD37O,0.300000X2.000000*%
%TD*%
%TA.AperFunction,SMDPad,CuDef*%
%ADD38RoundRect,0.140000X0.170000X-0.140000X0.170000X0.140000X-0.170000X0.140000X-0.170000X-0.140000X0*%
%TD*%
%TA.AperFunction,SMDPad,CuDef*%
%ADD39R,1.000000X1.720000*%
%TD*%
%TA.AperFunction,SMDPad,CuDef*%
%ADD40RoundRect,0.250000X-0.650000X0.325000X-0.650000X-0.325000X0.650000X-0.325000X0.650000X0.325000X0*%
%TD*%
%TA.AperFunction,SMDPad,CuDef*%
%ADD41RoundRect,0.140000X-0.140000X-0.170000X0.140000X-0.170000X0.140000X0.170000X-0.140000X0.170000X0*%
%TD*%
%TA.AperFunction,SMDPad,CuDef*%
%ADD42O,0.360000X0.610000*%
%TD*%
%TA.AperFunction,SMDPad,CuDef*%
%ADD43R,1.600000X1.000000*%
%TD*%
%TA.AperFunction,SMDPad,CuDef*%
%ADD44FreePoly0,90.000000*%
%TD*%
%TA.AperFunction,SMDPad,CuDef*%
%ADD45FreePoly1,90.000000*%
%TD*%
%TA.AperFunction,SMDPad,CuDef*%
%ADD46R,0.300000X0.300000*%
%TD*%
%TA.AperFunction,SMDPad,CuDef*%
%ADD47RoundRect,0.200000X0.200000X0.275000X-0.200000X0.275000X-0.200000X-0.275000X0.200000X-0.275000X0*%
%TD*%
%TA.AperFunction,ViaPad*%
%ADD48C,0.600000*%
%TD*%
%TA.AperFunction,Conductor*%
%ADD49C,0.300000*%
%TD*%
%TA.AperFunction,Conductor*%
%ADD50C,0.600000*%
%TD*%
%TA.AperFunction,Conductor*%
%ADD51C,1.000000*%
%TD*%
%TA.AperFunction,Conductor*%
%ADD52C,0.200000*%
%TD*%
%TA.AperFunction,Conductor*%
%ADD53C,2.000000*%
%TD*%
%TA.AperFunction,Conductor*%
%ADD54C,0.400000*%
%TD*%
G04 APERTURE END LIST*
D10*
%TO.C,AE1*%
X204402500Y-120811837D02*
X178892500Y-120811837D01*
X178892500Y-120511837D01*
X204102500Y-120511837D01*
X204102500Y-95601837D01*
X179192500Y-95601837D01*
X179192500Y-119911837D01*
X203502500Y-119911837D01*
X203502500Y-96201837D01*
X179792500Y-96201837D01*
X179792500Y-119311837D01*
X202902500Y-119311837D01*
X202902500Y-96801837D01*
X180392500Y-96801837D01*
X180392500Y-118711837D01*
X202302500Y-118711837D01*
X202302500Y-97401837D01*
X180992500Y-97401837D01*
X180992500Y-118111837D01*
X201702500Y-118111837D01*
X201702500Y-98001837D01*
X181592500Y-98001837D01*
X181592500Y-117511837D01*
X201102500Y-117511837D01*
X201102500Y-98601837D01*
X182192500Y-98601837D01*
X182192500Y-116911837D01*
X200502500Y-116911837D01*
X200502500Y-99201837D01*
X182792500Y-99201837D01*
X182792500Y-116311837D01*
X199902500Y-116311837D01*
X199902500Y-99801837D01*
X183392500Y-99801837D01*
X183392500Y-115711837D01*
X199302500Y-115711837D01*
X199302500Y-100401837D01*
X183992500Y-100401837D01*
X183992500Y-115111837D01*
X198702500Y-115111837D01*
X199002500Y-115111837D01*
X199002500Y-115411837D01*
X183692500Y-115411837D01*
X183692500Y-100101837D01*
X199602500Y-100101837D01*
X199602500Y-116011837D01*
X183092500Y-116011837D01*
X183092500Y-99501837D01*
X200202500Y-99501837D01*
X200202500Y-116611837D01*
X182492500Y-116611837D01*
X182492500Y-98901837D01*
X200802500Y-98901837D01*
X200802500Y-117211837D01*
X181892500Y-117211837D01*
X181892500Y-98301837D01*
X201402500Y-98301837D01*
X201402500Y-117811837D01*
X181292500Y-117811837D01*
X181292500Y-97701837D01*
X202002500Y-97701837D01*
X202002500Y-118411837D01*
X180692500Y-118411837D01*
X180692500Y-97101837D01*
X202602500Y-97101837D01*
X202602500Y-119011837D01*
X180092500Y-119011837D01*
X180092500Y-96501837D01*
X203202500Y-96501837D01*
X203202500Y-119611837D01*
X179492500Y-119611837D01*
X179492500Y-95901837D01*
X203802500Y-95901837D01*
X203802500Y-120211837D01*
X178892500Y-120211837D01*
X178892500Y-95301837D01*
X204402500Y-95301837D01*
X204402500Y-120811837D01*
%TA.AperFunction,EtchedComponent*%
G36*
X204402500Y-120811837D02*
G01*
X178892500Y-120811837D01*
X178892500Y-120511837D01*
X204102500Y-120511837D01*
X204102500Y-95601837D01*
X179192500Y-95601837D01*
X179192500Y-119911837D01*
X203502500Y-119911837D01*
X203502500Y-96201837D01*
X179792500Y-96201837D01*
X179792500Y-119311837D01*
X202902500Y-119311837D01*
X202902500Y-96801837D01*
X180392500Y-96801837D01*
X180392500Y-118711837D01*
X202302500Y-118711837D01*
X202302500Y-97401837D01*
X180992500Y-97401837D01*
X180992500Y-118111837D01*
X201702500Y-118111837D01*
X201702500Y-98001837D01*
X181592500Y-98001837D01*
X181592500Y-117511837D01*
X201102500Y-117511837D01*
X201102500Y-98601837D01*
X182192500Y-98601837D01*
X182192500Y-116911837D01*
X200502500Y-116911837D01*
X200502500Y-99201837D01*
X182792500Y-99201837D01*
X182792500Y-116311837D01*
X199902500Y-116311837D01*
X199902500Y-99801837D01*
X183392500Y-99801837D01*
X183392500Y-115711837D01*
X199302500Y-115711837D01*
X199302500Y-100401837D01*
X183992500Y-100401837D01*
X183992500Y-115111837D01*
X198702500Y-115111837D01*
X199002500Y-115111837D01*
X199002500Y-115411837D01*
X183692500Y-115411837D01*
X183692500Y-100101837D01*
X199602500Y-100101837D01*
X199602500Y-116011837D01*
X183092500Y-116011837D01*
X183092500Y-99501837D01*
X200202500Y-99501837D01*
X200202500Y-116611837D01*
X182492500Y-116611837D01*
X182492500Y-98901837D01*
X200802500Y-98901837D01*
X200802500Y-117211837D01*
X181892500Y-117211837D01*
X181892500Y-98301837D01*
X201402500Y-98301837D01*
X201402500Y-117811837D01*
X181292500Y-117811837D01*
X181292500Y-97701837D01*
X202002500Y-97701837D01*
X202002500Y-118411837D01*
X180692500Y-118411837D01*
X180692500Y-97101837D01*
X202602500Y-97101837D01*
X202602500Y-119011837D01*
X180092500Y-119011837D01*
X180092500Y-96501837D01*
X203202500Y-96501837D01*
X203202500Y-119611837D01*
X179492500Y-119611837D01*
X179492500Y-95901837D01*
X203802500Y-95901837D01*
X203802500Y-120211837D01*
X178892500Y-120211837D01*
X178892500Y-95301837D01*
X204402500Y-95301837D01*
X204402500Y-120811837D01*
G37*
%TD.AperFunction*%
%TD*%
D11*
%TO.P,R20,1*%
%TO.N,Net-(U6-PD2)*%
X140500000Y-115350000D03*
%TO.P,R20,2*%
%TO.N,Net-(D1-Pad2)*%
X139500000Y-115350000D03*
%TD*%
%TO.P,R18,1*%
%TO.N,Net-(U6-PC11)*%
X140050000Y-114450000D03*
%TO.P,R18,2*%
%TO.N,Net-(D2-Pad2)*%
X139050000Y-114450000D03*
%TD*%
D12*
%TO.P,D2,1*%
%TO.N,GND*%
X136150000Y-114150000D03*
%TO.P,D2,2*%
%TO.N,Net-(D2-Pad2)*%
X137730000Y-114150000D03*
%TD*%
%TO.P,D1,1*%
%TO.N,GND*%
X139370000Y-116700000D03*
%TO.P,D1,2*%
%TO.N,Net-(D1-Pad2)*%
X140950000Y-116700000D03*
%TD*%
D13*
%TO.P,C15,2*%
%TO.N,GND*%
X150100000Y-96120000D03*
%TO.P,C15,1*%
%TO.N,/3V3*%
X150100000Y-99080000D03*
%TD*%
D14*
%TO.P,R16,2*%
%TO.N,/3V3*%
X152150000Y-98220000D03*
%TO.P,R16,1*%
%TO.N,/~{RST}*%
X152150000Y-96580000D03*
%TD*%
D15*
%TO.P,TP10,1,1*%
%TO.N,Net-(U6-PC6)*%
X135000000Y-103300000D03*
%TD*%
%TO.P,TP6,1,1*%
%TO.N,Net-(U6-PA12)*%
X137400000Y-112000000D03*
%TD*%
%TO.P,TP5,1,1*%
%TO.N,Net-(U6-PB1)*%
X139200000Y-95600000D03*
%TD*%
D16*
%TO.P,R17,1*%
%TO.N,/3V3*%
X151200000Y-109820000D03*
%TO.P,R17,2*%
%TO.N,/PC14-OSC32_IN*%
X151200000Y-108180000D03*
%TD*%
D17*
%TO.P,C14,1*%
%TO.N,/VBAT*%
X167320000Y-106600000D03*
%TO.P,C14,2*%
%TO.N,GND*%
X168880000Y-106600000D03*
%TD*%
D18*
%TO.P,C7,1*%
%TO.N,GND*%
X151670000Y-104930000D03*
%TO.P,C7,2*%
%TO.N,/3V3*%
X151670000Y-103030000D03*
%TD*%
D19*
%TO.P,R2,1*%
%TO.N,/PA1*%
X158321285Y-97689337D03*
%TO.P,R2,2*%
%TO.N,Net-(Q2-G)*%
X159961285Y-97689337D03*
%TD*%
D20*
%TO.P,U2,1,32kHz*%
%TO.N,/PC14-OSC32_IN*%
X164721285Y-101014337D03*
%TO.P,U2,2,VCC*%
%TO.N,Net-(Q2-D)*%
X164721285Y-102294337D03*
%TO.P,U2,3,~{INT}/SQW*%
%TO.N,Net-(Q1-G)*%
X164721285Y-103554337D03*
%TO.P,U2,4,~{RST}*%
%TO.N,/~{RST}*%
X164721285Y-104824337D03*
%TO.P,U2,5,GND*%
%TO.N,GND*%
X170261285Y-104824337D03*
%TO.P,U2,6,VBAT*%
%TO.N,/VBAT*%
X170261285Y-103554337D03*
%TO.P,U2,7,SDA*%
%TO.N,/SDA*%
X170261285Y-102294337D03*
%TO.P,U2,8,SCL*%
%TO.N,/SCL*%
X170261285Y-101014337D03*
%TD*%
D21*
%TO.P,C11,1*%
%TO.N,Net-(U3-FB)*%
X154400000Y-109100000D03*
%TO.P,C11,2*%
%TO.N,GND*%
X154400000Y-110100000D03*
%TD*%
D22*
%TO.P,Q3,1,G*%
%TO.N,Net-(Q3-G)*%
X165831285Y-110091837D03*
%TO.P,Q3,2,S*%
%TO.N,/3V3*%
X165831285Y-111991837D03*
%TO.P,Q3,3,D*%
%TO.N,/PA0*%
X167711285Y-111041837D03*
%TD*%
D11*
%TO.P,C4,1*%
%TO.N,/3V3*%
X137490000Y-109980000D03*
%TO.P,C4,2*%
%TO.N,GND*%
X136490000Y-109980000D03*
%TD*%
D23*
%TO.P,C1,1*%
%TO.N,Net-(Q2-D)*%
X166666285Y-99519337D03*
%TO.P,C1,2*%
%TO.N,GND*%
X166666285Y-97959337D03*
%TD*%
D24*
%TO.P,J1,1,Pin_1*%
%TO.N,/SDA*%
X152625000Y-115900000D03*
D25*
%TO.P,J1,2,Pin_2*%
%TO.N,/SCL*%
X155165000Y-115900000D03*
%TD*%
D26*
%TO.P,C2,1*%
%TO.N,Net-(Q4-D)*%
X169296285Y-113631837D03*
%TO.P,C2,2*%
%TO.N,GND*%
X169296285Y-115531837D03*
%TD*%
D27*
%TO.P,U4,1,LA*%
%TO.N,Net-(U4-LA)*%
X172246285Y-114841837D03*
D28*
%TO.P,U4,2,VSS*%
%TO.N,GND*%
X172246285Y-114341837D03*
%TO.P,U4,3,SCL*%
%TO.N,/SCL*%
X172246285Y-113841837D03*
D29*
%TO.P,U4,4,FD*%
%TO.N,Net-(Q3-G)*%
X171646285Y-113741837D03*
D28*
%TO.P,U4,5,SDA*%
%TO.N,/SDA*%
X171046285Y-113841837D03*
%TO.P,U4,6,VCC*%
%TO.N,Net-(Q4-D)*%
X171046285Y-114341837D03*
%TO.P,U4,7,VOUT*%
X171046285Y-114841837D03*
D29*
%TO.P,U4,8,LB*%
%TO.N,Net-(U4-LB)*%
X171646285Y-114941837D03*
%TD*%
D24*
%TO.P,U5,1,VCC*%
%TO.N,Net-(Q6-D)*%
X131891285Y-96851837D03*
D25*
%TO.P,U5,2,GND*%
%TO.N,GND*%
X131891285Y-99391837D03*
%TO.P,U5,3,DIN*%
%TO.N,/PA7*%
X131891285Y-101931837D03*
%TO.P,U5,4,CLK*%
%TO.N,/PA5*%
X131891285Y-104471837D03*
%TO.P,U5,5,CS*%
%TO.N,/PA4*%
X131891285Y-107011837D03*
%TO.P,U5,6,DC*%
%TO.N,/PA6*%
X131891285Y-109551837D03*
%TO.P,U5,7,RST*%
%TO.N,/PA8*%
X131891285Y-112091837D03*
%TO.P,U5,8,BUSY*%
%TO.N,/PA9*%
X131891285Y-114631837D03*
%TD*%
D14*
%TO.P,R15,1*%
%TO.N,Net-(U3-FB)*%
X155600000Y-108080000D03*
%TO.P,R15,2*%
%TO.N,GND*%
X155600000Y-109720000D03*
%TD*%
D30*
%TO.P,Q5,1,G*%
%TO.N,Net-(Q3-G)*%
X163831285Y-119341837D03*
%TO.P,Q5,2,S*%
%TO.N,Net-(JP1-A)*%
X165731285Y-119341837D03*
%TO.P,Q5,3,D*%
%TO.N,Net-(JP1-B)*%
X164781285Y-117461837D03*
%TD*%
D31*
%TO.P,C9,1*%
%TO.N,GND*%
X144220000Y-96720000D03*
%TO.P,C9,2*%
%TO.N,Net-(U6-VCAP_1)*%
X141260000Y-96720000D03*
%TD*%
D32*
%TO.P,Q6,1,G*%
%TO.N,Net-(Q6-G)*%
X136880000Y-97700000D03*
%TO.P,Q6,2,S*%
%TO.N,/3V3*%
X136880000Y-95800000D03*
%TO.P,Q6,3,D*%
%TO.N,Net-(Q6-D)*%
X135000000Y-96750000D03*
%TD*%
D33*
%TO.P,JP2,1,A*%
%TO.N,/NRST*%
X153200000Y-112760000D03*
D34*
%TO.P,JP2,2,B*%
%TO.N,GND*%
X154500000Y-112760000D03*
%TD*%
D11*
%TO.P,C10,1*%
%TO.N,GND*%
X152010000Y-106260000D03*
%TO.P,C10,2*%
%TO.N,/NRST*%
X151010000Y-106260000D03*
%TD*%
D35*
%TO.P,TP1,1,1*%
%TO.N,Net-(U4-LA)*%
X178000000Y-120750000D03*
%TD*%
D36*
%TO.P,U6,1,VBAT*%
%TO.N,/3V3*%
X149250000Y-108750000D03*
%TO.P,U6,2,PC13*%
%TO.N,unconnected-(U6-PC13-Pad2)*%
X149250000Y-108250000D03*
%TO.P,U6,3,PC14-OSC32_IN*%
%TO.N,/PC14-OSC32_IN*%
X149250000Y-107750000D03*
%TO.P,U6,4,PC15_OSC32_OUT*%
%TO.N,unconnected-(U6-PC15_OSC32_OUT-Pad4)*%
X149250000Y-107250000D03*
%TO.P,U6,5,PH0_OSC_IN*%
%TO.N,unconnected-(U6-PH0_OSC_IN-Pad5)*%
X149250000Y-106750000D03*
%TO.P,U6,6,PH1_OSC_OUT*%
%TO.N,unconnected-(U6-PH1_OSC_OUT-Pad6)*%
X149250000Y-106250000D03*
%TO.P,U6,7,NRST*%
%TO.N,/NRST*%
X149250000Y-105750000D03*
%TO.P,U6,8,PC0*%
%TO.N,unconnected-(U6-PC0-Pad8)*%
X149250000Y-105250000D03*
%TO.P,U6,9,PC1*%
%TO.N,unconnected-(U6-PC1-Pad9)*%
X149250000Y-104750000D03*
%TO.P,U6,10,PC2*%
%TO.N,unconnected-(U6-PC2-Pad10)*%
X149250000Y-104250000D03*
%TO.P,U6,11,PC3*%
%TO.N,unconnected-(U6-PC3-Pad11)*%
X149250000Y-103750000D03*
%TO.P,U6,12,VSSA/VREF-*%
%TO.N,GND*%
X149250000Y-103250000D03*
%TO.P,U6,13,VDDA/VREF+*%
%TO.N,/3V3*%
X149250000Y-102750000D03*
%TO.P,U6,14,PA0*%
%TO.N,/PA0*%
X149250000Y-102250000D03*
%TO.P,U6,15,PA1*%
%TO.N,/PA1*%
X149250000Y-101750000D03*
%TO.P,U6,16,PA2*%
%TO.N,/PA2*%
X149250000Y-101250000D03*
D37*
%TO.P,U6,17,PA3*%
%TO.N,/PA3*%
X147250000Y-99250000D03*
%TO.P,U6,18,VSS*%
%TO.N,GND*%
X146750000Y-99250000D03*
%TO.P,U6,19,VDD*%
%TO.N,/3V3*%
X146250000Y-99250000D03*
%TO.P,U6,20,PA4*%
%TO.N,/PA4*%
X145750000Y-99250000D03*
%TO.P,U6,21,PA5*%
%TO.N,/PA5*%
X145250000Y-99250000D03*
%TO.P,U6,22,PA6*%
%TO.N,/PA6*%
X144750000Y-99250000D03*
%TO.P,U6,23,PA7*%
%TO.N,/PA7*%
X144250000Y-99250000D03*
%TO.P,U6,24,PC4*%
%TO.N,unconnected-(U6-PC4-Pad24)*%
X143750000Y-99250000D03*
%TO.P,U6,25,PC5*%
%TO.N,unconnected-(U6-PC5-Pad25)*%
X143250000Y-99250000D03*
%TO.P,U6,26,PB0*%
%TO.N,/VBAT*%
X142750000Y-99250000D03*
%TO.P,U6,27,PB1*%
%TO.N,Net-(U6-PB1)*%
X142250000Y-99250000D03*
%TO.P,U6,28,PB2*%
%TO.N,unconnected-(U6-PB2-Pad28)*%
X141750000Y-99250000D03*
%TO.P,U6,29,PB10*%
%TO.N,unconnected-(U6-PB10-Pad29)*%
X141250000Y-99250000D03*
%TO.P,U6,30,VCAP_1*%
%TO.N,Net-(U6-VCAP_1)*%
X140750000Y-99250000D03*
%TO.P,U6,31,VSS*%
%TO.N,GND*%
X140250000Y-99250000D03*
%TO.P,U6,32,VDD*%
%TO.N,/3V3*%
X139750000Y-99250000D03*
D36*
%TO.P,U6,33,PB12*%
%TO.N,unconnected-(U6-PB12-Pad33)*%
X137750000Y-101250000D03*
%TO.P,U6,34,PB13*%
%TO.N,unconnected-(U6-PB13-Pad34)*%
X137750000Y-101750000D03*
%TO.P,U6,35,PB14*%
%TO.N,unconnected-(U6-PB14-Pad35)*%
X137750000Y-102250000D03*
%TO.P,U6,36,PB15*%
%TO.N,Net-(U6-PB15)*%
X137750000Y-102750000D03*
%TO.P,U6,37,PC6*%
%TO.N,Net-(U6-PC6)*%
X137750000Y-103250000D03*
%TO.P,U6,38,PC7*%
%TO.N,Net-(U6-PC7)*%
X137750000Y-103750000D03*
%TO.P,U6,39,PC8*%
%TO.N,unconnected-(U6-PC8-Pad39)*%
X137750000Y-104250000D03*
%TO.P,U6,40,PC9*%
%TO.N,unconnected-(U6-PC9-Pad40)*%
X137750000Y-104750000D03*
%TO.P,U6,41,PA8*%
%TO.N,/PA8*%
X137750000Y-105250000D03*
%TO.P,U6,42,PA9*%
%TO.N,/PA9*%
X137750000Y-105750000D03*
%TO.P,U6,43,PA10*%
%TO.N,/~{RST}*%
X137750000Y-106250000D03*
%TO.P,U6,44,PA11*%
%TO.N,unconnected-(U6-PA11-Pad44)*%
X137750000Y-106750000D03*
%TO.P,U6,45,PA12*%
%TO.N,Net-(U6-PA12)*%
X137750000Y-107250000D03*
%TO.P,U6,46,PA13*%
%TO.N,/PA13*%
X137750000Y-107750000D03*
%TO.P,U6,47,VSS*%
%TO.N,GND*%
X137750000Y-108250000D03*
%TO.P,U6,48,VDD*%
%TO.N,/3V3*%
X137750000Y-108750000D03*
D37*
%TO.P,U6,49,PA14*%
%TO.N,/PA14*%
X139750000Y-110750000D03*
%TO.P,U6,50,PA15*%
%TO.N,unconnected-(U6-PA15-Pad50)*%
X140250000Y-110750000D03*
%TO.P,U6,51,PC10*%
%TO.N,unconnected-(U6-PC10-Pad51)*%
X140750000Y-110750000D03*
%TO.P,U6,52,PC11*%
%TO.N,Net-(U6-PC11)*%
X141250000Y-110750000D03*
%TO.P,U6,53,PC12*%
%TO.N,unconnected-(U6-PC12-Pad53)*%
X141750000Y-110750000D03*
%TO.P,U6,54,PD2*%
%TO.N,Net-(U6-PD2)*%
X142250000Y-110750000D03*
%TO.P,U6,55,PB3*%
%TO.N,unconnected-(U6-PB3-Pad55)*%
X142750000Y-110750000D03*
%TO.P,U6,56,PB4*%
%TO.N,unconnected-(U6-PB4-Pad56)*%
X143250000Y-110750000D03*
%TO.P,U6,57,PB5*%
%TO.N,unconnected-(U6-PB5-Pad57)*%
X143750000Y-110750000D03*
%TO.P,U6,58,PB6*%
%TO.N,/SCL*%
X144250000Y-110750000D03*
%TO.P,U6,59,PB7*%
%TO.N,/SDA*%
X144750000Y-110750000D03*
%TO.P,U6,60,BOOT0*%
%TO.N,Net-(JP3-A)*%
X145250000Y-110750000D03*
%TO.P,U6,61,PB8*%
%TO.N,unconnected-(U6-PB8-Pad61)*%
X145750000Y-110750000D03*
%TO.P,U6,62,PB9*%
%TO.N,unconnected-(U6-PB9-Pad62)*%
X146250000Y-110750000D03*
%TO.P,U6,63,VSS*%
%TO.N,GND*%
X146750000Y-110750000D03*
%TO.P,U6,64,VDD*%
%TO.N,/3V3*%
X147250000Y-110750000D03*
%TD*%
D38*
%TO.P,C5,1*%
%TO.N,/3V3*%
X137030000Y-100030000D03*
%TO.P,C5,2*%
%TO.N,GND*%
X137030000Y-99030000D03*
%TD*%
D16*
%TO.P,R5,1*%
%TO.N,/PA2*%
X169806285Y-119741837D03*
%TO.P,R5,2*%
%TO.N,Net-(JP1-A)*%
X169806285Y-118101837D03*
%TD*%
D39*
%TO.P,U1,1,1*%
%TO.N,Net-(U3-SW)*%
X156370000Y-112480000D03*
%TO.P,U1,2,2*%
%TO.N,/VBAT*%
X158030000Y-112480000D03*
%TD*%
D16*
%TO.P,R13,1*%
%TO.N,/3V3*%
X135791285Y-100721837D03*
%TO.P,R13,2*%
%TO.N,Net-(Q6-G)*%
X135791285Y-99081837D03*
%TD*%
D21*
%TO.P,C3,1*%
%TO.N,/3V3*%
X148140000Y-110710000D03*
%TO.P,C3,2*%
%TO.N,GND*%
X148140000Y-111710000D03*
%TD*%
D40*
%TO.P,C12,1*%
%TO.N,GND*%
X160000000Y-108100000D03*
%TO.P,C12,2*%
%TO.N,/VBAT*%
X160000000Y-111060000D03*
%TD*%
D35*
%TO.P,TP2,1,1*%
%TO.N,Net-(U4-LA)*%
X171500000Y-119500000D03*
%TD*%
D16*
%TO.P,R12,1*%
%TO.N,/PA3*%
X134401285Y-100731837D03*
%TO.P,R12,2*%
%TO.N,Net-(Q6-G)*%
X134401285Y-99091837D03*
%TD*%
%TO.P,R1,1*%
%TO.N,/3V3*%
X161266285Y-99209337D03*
%TO.P,R1,2*%
%TO.N,Net-(Q2-G)*%
X161266285Y-97569337D03*
%TD*%
D41*
%TO.P,C6,1*%
%TO.N,/3V3*%
X146300000Y-97590000D03*
%TO.P,C6,2*%
%TO.N,GND*%
X147300000Y-97590000D03*
%TD*%
D19*
%TO.P,R9,1*%
%TO.N,/3V3*%
X142820000Y-113020000D03*
%TO.P,R9,2*%
%TO.N,/SDA*%
X144460000Y-113020000D03*
%TD*%
D18*
%TO.P,C8,1*%
%TO.N,GND*%
X153770000Y-104940000D03*
%TO.P,C8,2*%
%TO.N,/3V3*%
X153770000Y-103040000D03*
%TD*%
D42*
%TO.P,U3,1,GND*%
%TO.N,GND*%
X158200000Y-108320000D03*
%TO.P,U3,2,VOUT*%
%TO.N,/3V3*%
X157550000Y-108320000D03*
%TO.P,U3,3,FB*%
%TO.N,Net-(U3-FB)*%
X156900000Y-108320000D03*
%TO.P,U3,4,EN*%
%TO.N,/VBAT*%
X156900000Y-110380000D03*
%TO.P,U3,5,SW*%
%TO.N,Net-(U3-SW)*%
X157550000Y-110380000D03*
%TO.P,U3,6,VIN*%
%TO.N,/VBAT*%
X158200000Y-110380000D03*
D43*
%TO.P,U3,7,EP*%
%TO.N,GND*%
X157550000Y-109350000D03*
%TD*%
D14*
%TO.P,R8,1*%
%TO.N,/3V3*%
X163646285Y-113701837D03*
%TO.P,R8,2*%
%TO.N,Net-(JP1-B)*%
X163646285Y-115341837D03*
%TD*%
D33*
%TO.P,JP3,1,A*%
%TO.N,Net-(JP3-A)*%
X149620000Y-112740000D03*
D34*
%TO.P,JP3,2,B*%
%TO.N,/3V3*%
X150920000Y-112740000D03*
%TD*%
D44*
%TO.P,JP1,1,A*%
%TO.N,Net-(JP1-A)*%
X167831285Y-118716837D03*
D45*
%TO.P,JP1,2,B*%
%TO.N,Net-(JP1-B)*%
X167831285Y-117416837D03*
%TD*%
D31*
%TO.P,C13,1*%
%TO.N,GND*%
X160180000Y-105980000D03*
%TO.P,C13,2*%
%TO.N,/3V3*%
X157220000Y-105980000D03*
%TD*%
D14*
%TO.P,R3,1*%
%TO.N,Net-(Q3-G)*%
X164126285Y-110621837D03*
%TO.P,R3,2*%
%TO.N,/3V3*%
X164126285Y-112261837D03*
%TD*%
D24*
%TO.P,J4,1,Pin_1*%
%TO.N,/3V3*%
X152160000Y-119500000D03*
D25*
%TO.P,J4,2,Pin_2*%
%TO.N,GND*%
X149620000Y-119500000D03*
%TO.P,J4,3,Pin_3*%
%TO.N,/PA13*%
X147080000Y-119500000D03*
%TO.P,J4,4,Pin_4*%
%TO.N,/PA14*%
X144540000Y-119500000D03*
%TO.P,J4,5,Pin_5*%
%TO.N,/NRST*%
X142000000Y-119500000D03*
%TD*%
D14*
%TO.P,R14,1*%
%TO.N,Net-(R11-Pad2)*%
X154200000Y-106380000D03*
%TO.P,R14,2*%
%TO.N,Net-(U3-FB)*%
X154200000Y-108020000D03*
%TD*%
D19*
%TO.P,R6,1*%
%TO.N,/3V3*%
X142780000Y-114410000D03*
%TO.P,R6,2*%
%TO.N,/SCL*%
X144420000Y-114410000D03*
%TD*%
D16*
%TO.P,R7,1*%
%TO.N,Net-(Q1-G)*%
X162616285Y-102584337D03*
%TO.P,R7,2*%
%TO.N,/3V3*%
X162616285Y-100944337D03*
%TD*%
D24*
%TO.P,J3,1,Pin_1*%
%TO.N,GND*%
X156000000Y-119500000D03*
D25*
%TO.P,J3,2,Pin_2*%
%TO.N,/VBAT*%
X158540000Y-119500000D03*
%TD*%
D35*
%TO.P,TP4,1,1*%
%TO.N,Net-(U4-LB)*%
X171500000Y-117500000D03*
%TD*%
D46*
%TO.P,AE1,1*%
%TO.N,Net-(U4-LA)*%
X178742500Y-120661837D03*
%TO.P,AE1,2*%
%TO.N,Net-(U4-LB)*%
X198852500Y-114961837D03*
%TD*%
D19*
%TO.P,R10,1*%
%TO.N,Net-(JP3-A)*%
X145720000Y-113030000D03*
%TO.P,R10,2*%
%TO.N,GND*%
X147360000Y-113030000D03*
%TD*%
D35*
%TO.P,TP3,1,1*%
%TO.N,Net-(U4-LB)*%
X178000000Y-116000000D03*
%TD*%
D32*
%TO.P,Q4,1,G*%
%TO.N,Net-(JP1-B)*%
X167216285Y-115551837D03*
%TO.P,Q4,2,S*%
%TO.N,/3V3*%
X167216285Y-113651837D03*
%TO.P,Q4,3,D*%
%TO.N,Net-(Q4-D)*%
X165336285Y-114601837D03*
%TD*%
%TO.P,Q1,1,G*%
%TO.N,Net-(Q1-G)*%
X160871285Y-102689337D03*
%TO.P,Q1,2,S*%
%TO.N,/3V3*%
X160871285Y-100789337D03*
%TO.P,Q1,3,D*%
%TO.N,/PA0*%
X158991285Y-101739337D03*
%TD*%
D22*
%TO.P,Q2,1,G*%
%TO.N,Net-(Q2-G)*%
X163011285Y-97564337D03*
%TO.P,Q2,2,S*%
%TO.N,/3V3*%
X163011285Y-99464337D03*
%TO.P,Q2,3,D*%
%TO.N,Net-(Q2-D)*%
X164891285Y-98514337D03*
%TD*%
D14*
%TO.P,R11,1*%
%TO.N,/3V3*%
X155600000Y-105280000D03*
%TO.P,R11,2*%
%TO.N,Net-(R11-Pad2)*%
X155600000Y-106920000D03*
%TD*%
D47*
%TO.P,R4,1*%
%TO.N,GND*%
X153761285Y-101551837D03*
%TO.P,R4,2*%
%TO.N,/PA0*%
X152121285Y-101551837D03*
%TD*%
D48*
%TO.N,GND*%
X137750000Y-115500000D03*
X138150000Y-115950000D03*
X148400000Y-96450000D03*
%TO.N,/VBAT*%
X151800000Y-95341837D03*
%TO.N,/PA2*%
X153650000Y-97301362D03*
%TO.N,/VBAT*%
X148500000Y-95341837D03*
%TO.N,Net-(U6-PB15)*%
X139600000Y-103500000D03*
%TO.N,Net-(U6-PC7)*%
X134449441Y-105749441D03*
%TO.N,Net-(U6-PD2)*%
X141800379Y-112650024D03*
X141800000Y-114600000D03*
%TO.N,Net-(U6-PC11)*%
X140900000Y-114555285D03*
X141001986Y-112599310D03*
%TO.N,/PA14*%
X140052224Y-112667776D03*
%TO.N,Net-(U6-PA12)*%
X136600000Y-110800000D03*
X135000000Y-110800000D03*
%TO.N,/PC14-OSC32_IN*%
X164700000Y-99600000D03*
X152500000Y-108500000D03*
%TO.N,GND*%
X136126285Y-109150000D03*
%TO.N,/NRST*%
X145600000Y-116450000D03*
X149500000Y-116450000D03*
X151134061Y-114834061D03*
%TO.N,/PA14*%
X141977525Y-115541714D03*
X144300000Y-117606000D03*
%TO.N,/PA3*%
X135798163Y-101701837D03*
X147971561Y-98771561D03*
%TO.N,/PA6*%
X142786285Y-105251837D03*
%TO.N,/PA4*%
X142836285Y-103961837D03*
%TO.N,GND*%
X168241285Y-104839337D03*
X153586285Y-110371837D03*
X158700000Y-106580000D03*
X169746285Y-116841837D03*
X147300000Y-96750000D03*
X173021285Y-114341837D03*
X159300000Y-109480000D03*
X158700000Y-105980000D03*
X145500000Y-96700000D03*
X154686285Y-110951837D03*
X153405000Y-111054159D03*
X154841285Y-101876837D03*
X153586285Y-109771837D03*
X165441285Y-97289337D03*
X159900000Y-109480000D03*
X140100914Y-97195535D03*
X145800000Y-108600000D03*
X153100000Y-106260000D03*
X158700000Y-105380000D03*
X154066285Y-110941837D03*
X146800000Y-104600000D03*
X138050000Y-98920000D03*
X148270000Y-113020000D03*
%TO.N,Net-(Q3-G)*%
X162991285Y-112826837D03*
X162300000Y-114500000D03*
%TO.N,/PA0*%
X169466285Y-111726837D03*
X155391285Y-101201837D03*
X157666285Y-101726837D03*
X164650905Y-107986457D03*
X169466285Y-109501837D03*
X162631665Y-105967217D03*
%TO.N,/VBAT*%
X160791285Y-109476837D03*
X162541285Y-106976837D03*
X168176285Y-101500000D03*
X168500000Y-98311837D03*
%TO.N,/PA1*%
X156291285Y-98326837D03*
X154200000Y-99554159D03*
%TO.N,/SCL*%
X172491285Y-109676837D03*
X157300000Y-115800000D03*
X172491285Y-112551837D03*
X162641285Y-110426837D03*
%TO.N,/SDA*%
X172091285Y-107401837D03*
X170791285Y-112726837D03*
X163103785Y-108614337D03*
X170791285Y-108751837D03*
X157200000Y-114600000D03*
%TO.N,/~{RST}*%
X167400000Y-102900000D03*
X148250000Y-97700000D03*
X167600000Y-96300000D03*
X141950000Y-107650000D03*
%TO.N,Net-(U4-LA)*%
X178387500Y-119750000D03*
X173022285Y-117026837D03*
%TO.N,Net-(U4-LB)*%
X197782500Y-113901837D03*
X171641285Y-116000000D03*
X178250000Y-114500000D03*
%TO.N,/PA2*%
X151800000Y-99301362D03*
%TO.N,/PA5*%
X142606285Y-103091837D03*
%TO.N,/PA7*%
X142536285Y-101261837D03*
%TD*%
D49*
%TO.N,GND*%
X148270000Y-113020000D02*
X148190000Y-112940000D01*
X148190000Y-112940000D02*
X148190000Y-111760000D01*
X148190000Y-111760000D02*
X148140000Y-111710000D01*
X148270000Y-113020000D02*
X147370000Y-113020000D01*
X147370000Y-113020000D02*
X147360000Y-113030000D01*
D50*
%TO.N,/3V3*%
X142820000Y-113700000D02*
X142820000Y-113530000D01*
X142820000Y-113530000D02*
X142810000Y-113520000D01*
X142810000Y-113520000D02*
X139444448Y-113520000D01*
X139444448Y-113520000D02*
X138930000Y-113005552D01*
X138930000Y-113005552D02*
X138930000Y-110600000D01*
X138930000Y-110600000D02*
X138260000Y-109930000D01*
X138260000Y-109930000D02*
X137540000Y-109930000D01*
X137540000Y-109930000D02*
X137490000Y-109980000D01*
D49*
%TO.N,GND*%
X136126285Y-109150000D02*
X136126285Y-108573715D01*
X136126285Y-109150000D02*
X136126285Y-109426285D01*
X136126285Y-109426285D02*
X136500000Y-109800000D01*
X136126285Y-108573715D02*
X136450000Y-108250000D01*
X136450000Y-108250000D02*
X137750000Y-108250000D01*
D50*
X137380000Y-99120000D02*
X136940000Y-99120000D01*
X138050000Y-98920000D02*
X137580000Y-98920000D01*
X137580000Y-98920000D02*
X137380000Y-99120000D01*
D49*
%TO.N,Net-(U6-PD2)*%
X141800000Y-112300000D02*
X142250000Y-111850000D01*
X141800379Y-112650024D02*
X141800000Y-112649645D01*
X141800000Y-112649645D02*
X141800000Y-112300000D01*
X142250000Y-111850000D02*
X142250000Y-110750000D01*
%TO.N,/PA14*%
X140052224Y-112667776D02*
X139750000Y-112365552D01*
X139750000Y-112365552D02*
X139750000Y-110750000D01*
%TO.N,/PA13*%
X147080000Y-119500000D02*
X145836000Y-118256000D01*
X145836000Y-118256000D02*
X138656000Y-118256000D01*
X138656000Y-118256000D02*
X134950000Y-114550000D01*
X134950000Y-114550000D02*
X134950000Y-112900000D01*
X134950000Y-112900000D02*
X135800000Y-112050000D01*
X135800000Y-112050000D02*
X135800000Y-110400000D01*
X135800000Y-110400000D02*
X135250000Y-109850000D01*
X135250000Y-109850000D02*
X135250000Y-108338122D01*
X135250000Y-108338122D02*
X135838122Y-107750000D01*
X135838122Y-107750000D02*
X137750000Y-107750000D01*
%TO.N,Net-(D2-Pad2)*%
X139050000Y-114450000D02*
X138030000Y-114450000D01*
X138030000Y-114450000D02*
X137730000Y-114150000D01*
%TO.N,GND*%
X136350000Y-114150000D02*
X138150000Y-115950000D01*
%TO.N,Net-(U6-PC11)*%
X140900000Y-114555285D02*
X140155285Y-114555285D01*
%TO.N,GND*%
X138900000Y-116700000D02*
X138150000Y-115950000D01*
X139370000Y-116700000D02*
X138900000Y-116700000D01*
%TO.N,Net-(D1-Pad2)*%
X139500000Y-115358260D02*
X140841740Y-116700000D01*
%TO.N,/PA14*%
X141977525Y-115541714D02*
X141977525Y-116937525D01*
X141977525Y-116937525D02*
X142646000Y-117606000D01*
X142646000Y-117606000D02*
X144300000Y-117606000D01*
%TO.N,Net-(U6-PD2)*%
X141800000Y-114600000D02*
X141800000Y-114800000D01*
X141800000Y-114800000D02*
X141300000Y-115300000D01*
X141300000Y-115300000D02*
X140600000Y-115300000D01*
D51*
%TO.N,GND*%
X149770000Y-96450000D02*
X148400000Y-96450000D01*
X150100000Y-96120000D02*
X149770000Y-96450000D01*
D52*
%TO.N,/~{RST}*%
X148250000Y-97700000D02*
X148575000Y-97700000D01*
X148575000Y-97700000D02*
X148975000Y-97300000D01*
X148975000Y-97300000D02*
X151430000Y-97300000D01*
X151430000Y-97300000D02*
X152831000Y-95899000D01*
X152831000Y-95899000D02*
X167199000Y-95899000D01*
X167199000Y-95899000D02*
X167600000Y-96300000D01*
D49*
%TO.N,GND*%
X147300000Y-96750000D02*
X147300000Y-97590000D01*
%TO.N,/PA2*%
X151800000Y-99301362D02*
X151800000Y-99500000D01*
X151800000Y-99500000D02*
X150050000Y-101250000D01*
X153650000Y-97301362D02*
X153650000Y-97250000D01*
X167750000Y-99000000D02*
X168571837Y-99821837D01*
X153650000Y-97250000D02*
X154473163Y-96426837D01*
X154473163Y-96426837D02*
X166676837Y-96426837D01*
X168571837Y-99821837D02*
X170986285Y-99821837D01*
X172500000Y-120750000D02*
X170814448Y-120750000D01*
X170814448Y-120750000D02*
X169806285Y-119741837D01*
X166676837Y-96426837D02*
X167750000Y-97500000D01*
X167750000Y-97500000D02*
X167750000Y-99000000D01*
X170986285Y-99821837D02*
X173672285Y-102507837D01*
X173672285Y-102507837D02*
X173672285Y-119577715D01*
X173672285Y-119577715D02*
X172500000Y-120750000D01*
%TO.N,/VBAT*%
X148500000Y-95341837D02*
X143296285Y-95341837D01*
X143296285Y-95341837D02*
X142750000Y-95888122D01*
X142750000Y-95888122D02*
X142750000Y-99250000D01*
X151800000Y-95341837D02*
X167741837Y-95341837D01*
X167741837Y-95341837D02*
X168500000Y-96100000D01*
X168500000Y-96100000D02*
X168500000Y-98311837D01*
D50*
%TO.N,Net-(Q3-G)*%
X162300000Y-114500000D02*
X162300000Y-115900000D01*
X162300000Y-115900000D02*
X163831285Y-117431285D01*
X163831285Y-117431285D02*
X163831285Y-119341837D01*
D49*
%TO.N,/SCL*%
X157300000Y-115800000D02*
X155265000Y-115800000D01*
%TO.N,/NRST*%
X151134061Y-114834061D02*
X152096285Y-113871837D01*
X152096285Y-113871837D02*
X152096285Y-113863715D01*
X152096285Y-113863715D02*
X153200000Y-112760000D01*
%TO.N,/SDA*%
X152625000Y-115900000D02*
X151200000Y-115900000D01*
X151200000Y-115900000D02*
X150200000Y-114900000D01*
X150200000Y-114900000D02*
X146190000Y-114900000D01*
X146190000Y-114900000D02*
X144460000Y-113170000D01*
%TO.N,Net-(U6-PB15)*%
X139600000Y-103500000D02*
X138850000Y-102750000D01*
X138850000Y-102750000D02*
X137750000Y-102750000D01*
%TO.N,Net-(U6-PC7)*%
X134449441Y-105749441D02*
X134400000Y-105700000D01*
X134400000Y-105700000D02*
X134400000Y-105600000D01*
X134400000Y-105600000D02*
X136250000Y-103750000D01*
X136250000Y-103750000D02*
X137750000Y-103750000D01*
%TO.N,Net-(U6-PC6)*%
X137750000Y-103250000D02*
X135050000Y-103250000D01*
%TO.N,/PA3*%
X135798163Y-101701837D02*
X134666285Y-101701837D01*
X134666285Y-101701837D02*
X134316285Y-101351837D01*
X134316285Y-101351837D02*
X134316285Y-100816837D01*
X147971561Y-98771561D02*
X147493122Y-99250000D01*
X147493122Y-99250000D02*
X147250000Y-99250000D01*
%TO.N,/PA1*%
X152577203Y-99554159D02*
X150381362Y-101750000D01*
X154200000Y-99554159D02*
X152577203Y-99554159D01*
X150381362Y-101750000D02*
X149250000Y-101750000D01*
D50*
%TO.N,/3V3*%
X142780000Y-114410000D02*
X142780000Y-114780000D01*
X142780000Y-114780000D02*
X145250000Y-117250000D01*
X145250000Y-117250000D02*
X149910000Y-117250000D01*
X149910000Y-117250000D02*
X152160000Y-119500000D01*
D49*
%TO.N,/NRST*%
X145600000Y-116450000D02*
X149500000Y-116450000D01*
%TO.N,Net-(U6-PC11)*%
X141001986Y-112599310D02*
X141001986Y-112498014D01*
X141001986Y-112498014D02*
X141250000Y-112250000D01*
X141250000Y-112250000D02*
X141250000Y-110750000D01*
%TO.N,Net-(U6-PA12)*%
X137400000Y-111600000D02*
X136600000Y-110800000D01*
X137750000Y-107250000D02*
X135550000Y-107250000D01*
X135550000Y-107250000D02*
X134749000Y-108051000D01*
X134749000Y-108051000D02*
X134749000Y-110549000D01*
X134749000Y-110549000D02*
X135000000Y-110800000D01*
%TO.N,/PA9*%
X137750000Y-105750000D02*
X136250000Y-105750000D01*
X136250000Y-105750000D02*
X134100000Y-107900000D01*
X134100000Y-107900000D02*
X134100000Y-112423122D01*
X134100000Y-112423122D02*
X131891285Y-114631837D01*
%TO.N,/PA8*%
X137750000Y-105250000D02*
X135868122Y-105250000D01*
X135868122Y-105250000D02*
X133500000Y-107618122D01*
X133500000Y-107618122D02*
X133500000Y-110483122D01*
X133500000Y-110483122D02*
X131891285Y-112091837D01*
D50*
%TO.N,GND*%
X144640000Y-96700000D02*
X144620000Y-96720000D01*
X145500000Y-96700000D02*
X144640000Y-96700000D01*
X144620000Y-96720000D02*
X144220000Y-96720000D01*
%TO.N,/3V3*%
X137300000Y-95800000D02*
X139400000Y-97900000D01*
X139400000Y-97900000D02*
X139400000Y-99309999D01*
X139400000Y-99309999D02*
X138609999Y-100100000D01*
X138609999Y-100100000D02*
X138300000Y-100100000D01*
D49*
%TO.N,Net-(U6-PB1)*%
X141621870Y-95250000D02*
X139750000Y-95250000D01*
X142250000Y-95878130D02*
X141621870Y-95250000D01*
X142250000Y-99250000D02*
X142250000Y-95878130D01*
%TO.N,GND*%
X145800000Y-108600000D02*
X146750000Y-109550000D01*
X146750000Y-109550000D02*
X146750000Y-110750000D01*
X146800000Y-104600000D02*
X148150000Y-103250000D01*
X148150000Y-103250000D02*
X149250000Y-103250000D01*
%TO.N,/PC14-OSC32_IN*%
X164721285Y-99621285D02*
X164700000Y-99600000D01*
X164721285Y-101014337D02*
X164721285Y-99621285D01*
X152180000Y-108180000D02*
X152500000Y-108500000D01*
X151200000Y-108180000D02*
X152180000Y-108180000D01*
%TO.N,/NRST*%
X149250000Y-105750000D02*
X150330000Y-105750000D01*
X153200000Y-109000000D02*
X152700000Y-109500000D01*
X150330000Y-105750000D02*
X150870000Y-106290000D01*
X152300000Y-107100000D02*
X153200000Y-108000000D01*
X150870000Y-106290000D02*
X150870000Y-106570000D01*
X150870000Y-106570000D02*
X151400000Y-107100000D01*
X151400000Y-107100000D02*
X152300000Y-107100000D01*
X153200000Y-108000000D02*
X153200000Y-109000000D01*
X152700000Y-109500000D02*
X152700000Y-112260000D01*
X152700000Y-112260000D02*
X153200000Y-112760000D01*
%TO.N,/PC14-OSC32_IN*%
X149250000Y-107750000D02*
X150770000Y-107750000D01*
X150770000Y-107750000D02*
X151200000Y-108180000D01*
D50*
%TO.N,GND*%
X168241285Y-104839337D02*
X168615000Y-104839337D01*
X168615000Y-104839337D02*
X168880000Y-105104337D01*
X168880000Y-105104337D02*
X168880000Y-106600000D01*
D49*
%TO.N,/VBAT*%
X167469061Y-104369061D02*
X166126285Y-105711837D01*
X167469061Y-104369061D02*
X167320000Y-104518122D01*
X167320000Y-104518122D02*
X167320000Y-106600000D01*
%TO.N,/SCL*%
X162641285Y-110426837D02*
X162452785Y-110238337D01*
X170689448Y-107500000D02*
X172491285Y-109301837D01*
X162452785Y-110238337D02*
X162452785Y-108040337D01*
X162452785Y-108040337D02*
X163796561Y-106696561D01*
X163796561Y-106696561D02*
X165496561Y-106696561D01*
X165496561Y-106696561D02*
X166300000Y-107500000D01*
X166300000Y-107500000D02*
X170689448Y-107500000D01*
X172491285Y-109301837D02*
X172491285Y-109676837D01*
%TO.N,/SDA*%
X163103785Y-108614337D02*
X164409061Y-107309061D01*
X164409061Y-107309061D02*
X165173509Y-107309061D01*
X165173509Y-107309061D02*
X165964448Y-108100000D01*
X165964448Y-108100000D02*
X170139448Y-108100000D01*
X170139448Y-108100000D02*
X170791285Y-108751837D01*
%TO.N,/PA0*%
X164650905Y-107986457D02*
X164650905Y-108050905D01*
X165400000Y-108800000D02*
X168764448Y-108800000D01*
X164650905Y-108050905D02*
X165400000Y-108800000D01*
X168764448Y-108800000D02*
X169466285Y-109501837D01*
%TO.N,GND*%
X140100914Y-97195535D02*
X140100000Y-97196449D01*
X140155000Y-97249621D02*
X140155000Y-97845000D01*
X140100000Y-97196449D02*
X140100000Y-97790000D01*
X140155000Y-97845000D02*
X140250000Y-97940000D01*
X140100914Y-97195535D02*
X140155000Y-97249621D01*
X140250000Y-97940000D02*
X140250000Y-99250000D01*
%TO.N,Net-(U6-VCAP_1)*%
X140750000Y-97230000D02*
X141260000Y-96720000D01*
X140750000Y-99250000D02*
X140750000Y-97230000D01*
%TO.N,Net-(JP3-A)*%
X145250000Y-110750000D02*
X145250000Y-112560000D01*
X146810000Y-114120000D02*
X148480000Y-114120000D01*
X145720000Y-113030000D02*
X146810000Y-114120000D01*
X148480000Y-114120000D02*
X149620000Y-112980000D01*
X145250000Y-112560000D02*
X145720000Y-113030000D01*
D50*
%TO.N,Net-(U3-FB)*%
X154400000Y-109100000D02*
X154400000Y-108220000D01*
X154400000Y-108220000D02*
X154200000Y-108020000D01*
X155600000Y-108080000D02*
X154260000Y-108080000D01*
X155600000Y-108080000D02*
X156660000Y-108080000D01*
%TO.N,Net-(Q6-G)*%
X134401285Y-99091837D02*
X135281285Y-99091837D01*
X136860001Y-97700000D02*
X135791285Y-98768716D01*
X135791285Y-98768716D02*
X135791285Y-99081837D01*
%TO.N,Net-(Q6-D)*%
X135693163Y-96776837D02*
X131966285Y-96776837D01*
D49*
%TO.N,/PA6*%
X142640905Y-104906457D02*
X141866285Y-104131837D01*
X142356285Y-102251837D02*
X143296285Y-102251837D01*
X141866285Y-102741837D02*
X142356285Y-102251837D01*
X144750000Y-100798122D02*
X144750000Y-99250000D01*
X143296285Y-102251837D02*
X144750000Y-100798122D01*
X141866285Y-104131837D02*
X141866285Y-102741837D01*
X142786285Y-105251837D02*
X142640905Y-105106457D01*
X142640905Y-105106457D02*
X142640905Y-104906457D01*
%TO.N,/PA4*%
X142836285Y-103961837D02*
X143816285Y-103961837D01*
X145750000Y-102028122D02*
X145750000Y-99250000D01*
X143816285Y-103961837D02*
X145750000Y-102028122D01*
%TO.N,GND*%
X146750000Y-112420000D02*
X147360000Y-113030000D01*
X151165000Y-104105000D02*
X151165000Y-104425000D01*
D50*
X165441285Y-97289337D02*
X166066285Y-97289337D01*
D49*
X150310000Y-103250000D02*
X151165000Y-104105000D01*
X154500000Y-112249159D02*
X153405000Y-111154159D01*
X153100000Y-106260000D02*
X153100000Y-105000000D01*
X149250000Y-103250000D02*
X150310000Y-103250000D01*
D50*
X154565810Y-101601362D02*
X154841285Y-101876837D01*
D49*
X146750000Y-110750000D02*
X146750000Y-112420000D01*
D50*
X153810810Y-101601362D02*
X154565810Y-101601362D01*
D49*
X153405000Y-111154159D02*
X153405000Y-111054159D01*
D50*
X166066285Y-97289337D02*
X166666285Y-97889337D01*
D52*
X172246285Y-114341837D02*
X173021285Y-114341837D01*
D50*
X168916285Y-115591837D02*
X168916285Y-116011837D01*
D49*
X146750000Y-99250000D02*
X146750000Y-98148260D01*
D50*
X168256285Y-104824337D02*
X168241285Y-104839337D01*
X170261285Y-104824337D02*
X168256285Y-104824337D01*
D49*
X151165000Y-104425000D02*
X151670000Y-104930000D01*
X146750000Y-98148260D02*
X147300000Y-97598260D01*
D50*
X168916285Y-116011837D02*
X169746285Y-116841837D01*
D49*
X151670000Y-104930000D02*
X153760000Y-104930000D01*
X153100000Y-106260000D02*
X152010000Y-106260000D01*
D50*
%TO.N,Net-(Q2-D)*%
X165291285Y-98514337D02*
X166636285Y-99859337D01*
X166636285Y-99859337D02*
X166636285Y-101644337D01*
X165986285Y-102294337D02*
X164721285Y-102294337D01*
X166636285Y-101644337D02*
X165986285Y-102294337D01*
%TO.N,Net-(Q3-G)*%
X163836285Y-110621837D02*
X164126285Y-110621837D01*
D52*
X171646285Y-113741837D02*
X171646285Y-112601837D01*
X169136285Y-110091837D02*
X171646285Y-112601837D01*
X169136285Y-110091837D02*
X165831285Y-110091837D01*
D50*
X165301285Y-110621837D02*
X164126285Y-110621837D01*
X162991285Y-111466837D02*
X163836285Y-110621837D01*
X165831285Y-110091837D02*
X165301285Y-110621837D01*
X162991285Y-112826837D02*
X162991285Y-111466837D01*
D49*
%TO.N,/PA0*%
X167711285Y-111041837D02*
X168781285Y-111041837D01*
X155391285Y-101201837D02*
X154568607Y-100379159D01*
X159841285Y-103551837D02*
X158016285Y-101726837D01*
X157666285Y-101726837D02*
X158978785Y-101726837D01*
X168781285Y-111041837D02*
X169466285Y-111726837D01*
X150681362Y-102250000D02*
X152552202Y-100379159D01*
X162616285Y-104821837D02*
X161346285Y-103551837D01*
X149250000Y-102250000D02*
X150681362Y-102250000D01*
X161346285Y-103551837D02*
X159841285Y-103551837D01*
X162631665Y-105967217D02*
X162616285Y-105951837D01*
X158016285Y-101726837D02*
X157666285Y-101726837D01*
X162616285Y-105951837D02*
X162616285Y-104821837D01*
X154568607Y-100379159D02*
X152552202Y-100379159D01*
%TO.N,/VBAT*%
X168283785Y-103554337D02*
X170261285Y-103554337D01*
X163806285Y-105711837D02*
X162541285Y-106976837D01*
D53*
X158916285Y-112143715D02*
X158916285Y-119123715D01*
D49*
X168283785Y-103554337D02*
X167469061Y-104369061D01*
X155519000Y-111339122D02*
X156478122Y-110380000D01*
X168176285Y-101500000D02*
X168176285Y-103446837D01*
X160791285Y-110268715D02*
X160000000Y-111060000D01*
X155519000Y-113569122D02*
X155519000Y-111339122D01*
X156478122Y-110380000D02*
X156900000Y-110380000D01*
X158030000Y-112840000D02*
X157100990Y-113769010D01*
X157100990Y-113769010D02*
X155718888Y-113769010D01*
X160791285Y-109476837D02*
X160791285Y-110268715D01*
D53*
X158916285Y-119123715D02*
X158540000Y-119500000D01*
X160000000Y-111060000D02*
X158916285Y-112143715D01*
D49*
X166126285Y-105711837D02*
X163806285Y-105711837D01*
X155718888Y-113769010D02*
X155519000Y-113569122D01*
X168176285Y-103446837D02*
X168283785Y-103554337D01*
D50*
%TO.N,Net-(Q1-G)*%
X160976285Y-102584337D02*
X160871285Y-102689337D01*
X162616285Y-102584337D02*
X160976285Y-102584337D01*
X162616285Y-102584337D02*
X163586285Y-103554337D01*
X163586285Y-103554337D02*
X164721285Y-103554337D01*
D49*
%TO.N,/3V3*%
X149250000Y-102750000D02*
X150990000Y-102750000D01*
D50*
X142820000Y-113020000D02*
X142820000Y-114370000D01*
X163646285Y-113701837D02*
X162366285Y-113701837D01*
D51*
X157220000Y-104129159D02*
X156391285Y-103300444D01*
D49*
X146250000Y-99250000D02*
X146250000Y-97640000D01*
D50*
X162366285Y-113701837D02*
X161591285Y-112926837D01*
D51*
X156391285Y-103300444D02*
X156391285Y-100092647D01*
D50*
X136211285Y-100301837D02*
X138066285Y-100301837D01*
D49*
X150920000Y-109570000D02*
X150920000Y-112740000D01*
D52*
X165626285Y-111786837D02*
X165831285Y-111991837D01*
D49*
X150100000Y-108750000D02*
X150920000Y-109570000D01*
X151680000Y-103040000D02*
X153770000Y-103040000D01*
D51*
X156391285Y-100092647D02*
X154600000Y-98301362D01*
D49*
X150990000Y-102750000D02*
X151500000Y-103260000D01*
D50*
X160916285Y-104401837D02*
X157492678Y-104401837D01*
D51*
X157220000Y-105980000D02*
X157220000Y-104129159D01*
D50*
X157274595Y-99209337D02*
X156391285Y-100092647D01*
X161591285Y-112926837D02*
X161591285Y-105076837D01*
X157492678Y-104401837D02*
X157220000Y-104129159D01*
X135791285Y-100721837D02*
X136211285Y-100301837D01*
X161591285Y-105076837D02*
X160916285Y-104401837D01*
D51*
X154600000Y-98301362D02*
X150230000Y-98301362D01*
D50*
X161266285Y-99209337D02*
X157274595Y-99209337D01*
D51*
X150230000Y-98301362D02*
X148430000Y-100101362D01*
D50*
%TO.N,Net-(Q2-G)*%
X160086285Y-97564337D02*
X159961285Y-97689337D01*
X163011285Y-97564337D02*
X160086285Y-97564337D01*
D49*
%TO.N,/PA1*%
X156928785Y-97689337D02*
X156291285Y-98326837D01*
X158321285Y-97689337D02*
X156928785Y-97689337D01*
%TO.N,/SCL*%
X155165000Y-116635000D02*
X155165000Y-115900000D01*
X172742285Y-102760337D02*
X172742285Y-109425837D01*
X143640000Y-112420000D02*
X143640000Y-113630000D01*
X172491285Y-113596837D02*
X172246285Y-113841837D01*
X149900000Y-115700000D02*
X151700000Y-117500000D01*
X144420000Y-114410000D02*
X145710000Y-115700000D01*
X151700000Y-117500000D02*
X154300000Y-117500000D01*
X144250000Y-111810000D02*
X143640000Y-112420000D01*
X145710000Y-115700000D02*
X149900000Y-115700000D01*
X170996285Y-101014337D02*
X172742285Y-102760337D01*
X172742285Y-109425837D02*
X172491285Y-109676837D01*
X144250000Y-110750000D02*
X144250000Y-111810000D01*
X172491285Y-112551837D02*
X172491285Y-113596837D01*
X154300000Y-117500000D02*
X155165000Y-116635000D01*
X143640000Y-113630000D02*
X144420000Y-114410000D01*
%TO.N,/SDA*%
X170791285Y-113586837D02*
X171046285Y-113841837D01*
X144750000Y-112730000D02*
X144460000Y-113020000D01*
X170791285Y-112726837D02*
X170791285Y-113586837D01*
X172091285Y-103389337D02*
X172091285Y-107401837D01*
X153925000Y-114600000D02*
X152625000Y-115900000D01*
X144750000Y-110750000D02*
X144750000Y-112730000D01*
X157200000Y-114600000D02*
X153925000Y-114600000D01*
X170996285Y-102294337D02*
X172091285Y-103389337D01*
D52*
%TO.N,/~{RST}*%
X139050000Y-106250000D02*
X137750000Y-106250000D01*
X167400000Y-102900000D02*
X165475663Y-104824337D01*
X140450000Y-107650000D02*
X139050000Y-106250000D01*
X141950000Y-107650000D02*
X140450000Y-107650000D01*
%TO.N,Net-(U4-LA)*%
X178387500Y-120446837D02*
X178586500Y-120645837D01*
D49*
X173022285Y-117026837D02*
X173022285Y-115617837D01*
D52*
X178586500Y-120727837D02*
X178582500Y-120731837D01*
X173022285Y-117026837D02*
X173022285Y-117977715D01*
X178387500Y-119750000D02*
X178387500Y-120446837D01*
X173022285Y-117977715D02*
X171500000Y-119500000D01*
X178586500Y-120645837D02*
X178586500Y-120727837D01*
D49*
X173022285Y-115617837D02*
X172246285Y-114841837D01*
D52*
%TO.N,Net-(U4-LB)*%
X197742500Y-113861837D02*
X198682500Y-114801837D01*
X198682500Y-114801837D02*
X198912500Y-114801837D01*
X171641285Y-116000000D02*
X171641285Y-117358715D01*
X171641285Y-116000000D02*
X171641285Y-114946837D01*
D54*
X178250000Y-114500000D02*
X178250000Y-115750000D01*
D49*
%TO.N,/PA5*%
X145250000Y-101648122D02*
X145250000Y-99250000D01*
X143806285Y-103091837D02*
X145250000Y-101648122D01*
X142606285Y-103091837D02*
X143806285Y-103091837D01*
%TO.N,/PA7*%
X144250000Y-100428122D02*
X144250000Y-99250000D01*
X143416285Y-101261837D02*
X144250000Y-100428122D01*
X142536285Y-101261837D02*
X143416285Y-101261837D01*
D50*
%TO.N,Net-(R11-Pad2)*%
X155600000Y-106920000D02*
X154740000Y-106920000D01*
X154740000Y-106920000D02*
X154200000Y-106380000D01*
%TO.N,Net-(JP1-A)*%
X169806285Y-118101837D02*
X169406285Y-118501837D01*
X169406285Y-118501837D02*
X168046285Y-118501837D01*
X166131285Y-118716837D02*
X165731285Y-119116837D01*
X168046285Y-118501837D02*
X167831285Y-118716837D01*
X167831285Y-118716837D02*
X166131285Y-118716837D01*
%TO.N,Net-(JP1-B)*%
X165266285Y-115556837D02*
X167251285Y-115556837D01*
X164781285Y-116041837D02*
X165266285Y-115556837D01*
X167531285Y-115866837D02*
X167561285Y-115866837D01*
X167216285Y-115551837D02*
X167531285Y-115866837D01*
X164781285Y-117461837D02*
X164781285Y-116041837D01*
X165266285Y-115556837D02*
X164296285Y-115556837D01*
X167251285Y-115556837D02*
X167561285Y-115866837D01*
X167561285Y-117146837D02*
X167831285Y-117416837D01*
X164296285Y-115556837D02*
X164081285Y-115341837D01*
X163646285Y-115341837D02*
X164081285Y-115341837D01*
X167561285Y-115866837D02*
X167561285Y-117146837D01*
X164081285Y-115341837D02*
X164781285Y-116041837D01*
%TD*%
%TA.AperFunction,Conductor*%
%TO.N,Net-(Q4-D)*%
G36*
X169558011Y-113362598D02*
G01*
X169757404Y-113384800D01*
X169784175Y-113390836D01*
X169967260Y-113454091D01*
X169992047Y-113465868D01*
X170156737Y-113567846D01*
X170178325Y-113584785D01*
X170250388Y-113655534D01*
X170321494Y-113725344D01*
X170330740Y-113735486D01*
X170399190Y-113819494D01*
X170686285Y-114171837D01*
X170969779Y-114195861D01*
X170992409Y-114199919D01*
X171073538Y-114222401D01*
X171114661Y-114242576D01*
X171143666Y-114264257D01*
X171172670Y-114285937D01*
X171203665Y-114319670D01*
X171241971Y-114381132D01*
X171258602Y-114423813D01*
X171267383Y-114470528D01*
X171271207Y-114490878D01*
X171274151Y-114506538D01*
X171276285Y-114529444D01*
X171276285Y-114744624D01*
X171273902Y-114768816D01*
X171265492Y-114811095D01*
X171246976Y-114855795D01*
X171229943Y-114881286D01*
X171195734Y-114915495D01*
X171170243Y-114932528D01*
X171125543Y-114951044D01*
X171083265Y-114959454D01*
X171059073Y-114961837D01*
X170961679Y-114961837D01*
X170955960Y-114961705D01*
X170952155Y-114961529D01*
X170872395Y-114957846D01*
X170861007Y-114956792D01*
X170778170Y-114945253D01*
X170772525Y-114944334D01*
X170281870Y-114852746D01*
X170203758Y-114838165D01*
X170203754Y-114838164D01*
X170201159Y-114837680D01*
X170120447Y-114822614D01*
X170116285Y-114821837D01*
X170027311Y-114821210D01*
X170027303Y-114821210D01*
X170027300Y-114821209D01*
X168919651Y-114813410D01*
X168696285Y-114811837D01*
X168696284Y-114811837D01*
X168696282Y-114811837D01*
X168620461Y-114822614D01*
X168620390Y-114822625D01*
X168140435Y-114890853D01*
X168140433Y-114890853D01*
X168056538Y-114902778D01*
X168052050Y-114903333D01*
X167986232Y-114910251D01*
X167977203Y-114910868D01*
X167911061Y-114912967D01*
X167906538Y-114913028D01*
X164896740Y-114898695D01*
X164872633Y-114896212D01*
X164796321Y-114880702D01*
X164751821Y-114862083D01*
X164716255Y-114838165D01*
X164697503Y-114825554D01*
X164663477Y-114791365D01*
X164627206Y-114736871D01*
X164608799Y-114692284D01*
X164596043Y-114627957D01*
X164596001Y-114579948D01*
X164608803Y-114514773D01*
X164626882Y-114470531D01*
X164663448Y-114414949D01*
X164669049Y-114409240D01*
X164670951Y-114404726D01*
X164696921Y-114380831D01*
X164751795Y-114343210D01*
X164795685Y-114324290D01*
X164872735Y-114307621D01*
X164896570Y-114304842D01*
X165468548Y-114293921D01*
X166921589Y-114266176D01*
X166924386Y-114266155D01*
X167161580Y-114267317D01*
X167163076Y-114267321D01*
X167163254Y-114267321D01*
X167163903Y-114267321D01*
X167163972Y-114267321D01*
X167164569Y-114267320D01*
X167166105Y-114267317D01*
X167168342Y-114267305D01*
X167169959Y-114267290D01*
X167170028Y-114267289D01*
X167170042Y-114267289D01*
X167172035Y-114267264D01*
X167173297Y-114267244D01*
X167174441Y-114267224D01*
X167175605Y-114267201D01*
X167176325Y-114267185D01*
X167176567Y-114267180D01*
X167826893Y-114252143D01*
X167866112Y-114248699D01*
X167866111Y-114248699D01*
X167868106Y-114248524D01*
X167868112Y-114248597D01*
X167877856Y-114247917D01*
X168196285Y-114241837D01*
X168378471Y-113808529D01*
X168384859Y-113795524D01*
X168456946Y-113668238D01*
X168474096Y-113644844D01*
X168568774Y-113543183D01*
X168590891Y-113524413D01*
X168706617Y-113447532D01*
X168732485Y-113434422D01*
X168862904Y-113386544D01*
X168891120Y-113379801D01*
X168997463Y-113367272D01*
X169036365Y-113362689D01*
X169050874Y-113361837D01*
X169544290Y-113361837D01*
X169558011Y-113362598D01*
G37*
%TD.AperFunction*%
%TD*%
%TA.AperFunction,Conductor*%
%TO.N,/3V3*%
G36*
X139842539Y-99369685D02*
G01*
X139888294Y-99422489D01*
X139899500Y-99474000D01*
X139899500Y-100146143D01*
X139923387Y-100235290D01*
X139923388Y-100235293D01*
X139969526Y-100315205D01*
X139969529Y-100315209D01*
X139969531Y-100315212D01*
X140034788Y-100380469D01*
X140034791Y-100380470D01*
X140034794Y-100380473D01*
X140114706Y-100426611D01*
X140114707Y-100426611D01*
X140114712Y-100426614D01*
X140203856Y-100450500D01*
X140203858Y-100450500D01*
X140296142Y-100450500D01*
X140296144Y-100450500D01*
X140385288Y-100426614D01*
X140385292Y-100426612D01*
X140403143Y-100416305D01*
X140437998Y-100396180D01*
X140505898Y-100379707D01*
X140562000Y-100396180D01*
X140577397Y-100405069D01*
X140614709Y-100426613D01*
X140614711Y-100426613D01*
X140614712Y-100426614D01*
X140703856Y-100450500D01*
X140703858Y-100450500D01*
X140796142Y-100450500D01*
X140796144Y-100450500D01*
X140885288Y-100426614D01*
X140885292Y-100426612D01*
X140903143Y-100416305D01*
X140937998Y-100396180D01*
X141005898Y-100379707D01*
X141062000Y-100396180D01*
X141077397Y-100405069D01*
X141114709Y-100426613D01*
X141114711Y-100426613D01*
X141114712Y-100426614D01*
X141203856Y-100450500D01*
X141203858Y-100450500D01*
X141296142Y-100450500D01*
X141296144Y-100450500D01*
X141385288Y-100426614D01*
X141385292Y-100426612D01*
X141403143Y-100416305D01*
X141437998Y-100396180D01*
X141505898Y-100379707D01*
X141562000Y-100396180D01*
X141577397Y-100405069D01*
X141614709Y-100426613D01*
X141614711Y-100426613D01*
X141614712Y-100426614D01*
X141703856Y-100450500D01*
X141703858Y-100450500D01*
X141796142Y-100450500D01*
X141796144Y-100450500D01*
X141885288Y-100426614D01*
X141885292Y-100426612D01*
X141903143Y-100416305D01*
X141937998Y-100396180D01*
X142005898Y-100379707D01*
X142062000Y-100396180D01*
X142077397Y-100405069D01*
X142114709Y-100426613D01*
X142114711Y-100426613D01*
X142114712Y-100426614D01*
X142203856Y-100450500D01*
X142203858Y-100450500D01*
X142296142Y-100450500D01*
X142296144Y-100450500D01*
X142385288Y-100426614D01*
X142385292Y-100426612D01*
X142403143Y-100416305D01*
X142437998Y-100396180D01*
X142505898Y-100379707D01*
X142562000Y-100396180D01*
X142577397Y-100405069D01*
X142614709Y-100426613D01*
X142614711Y-100426613D01*
X142614712Y-100426614D01*
X142703856Y-100450500D01*
X142703858Y-100450500D01*
X142796142Y-100450500D01*
X142796144Y-100450500D01*
X142885288Y-100426614D01*
X142885292Y-100426612D01*
X142903143Y-100416305D01*
X142937998Y-100396180D01*
X143005898Y-100379707D01*
X143062000Y-100396180D01*
X143077397Y-100405069D01*
X143114709Y-100426613D01*
X143114711Y-100426613D01*
X143114712Y-100426614D01*
X143203856Y-100450500D01*
X143203858Y-100450500D01*
X143296142Y-100450500D01*
X143296144Y-100450500D01*
X143385288Y-100426614D01*
X143385292Y-100426612D01*
X143403143Y-100416305D01*
X143437998Y-100396180D01*
X143449671Y-100393348D01*
X143459459Y-100386381D01*
X143482998Y-100385262D01*
X143505898Y-100379707D01*
X143518993Y-100383553D01*
X143529250Y-100383066D01*
X143562014Y-100396188D01*
X143564239Y-100397473D01*
X143612448Y-100448047D01*
X143625662Y-100516655D01*
X143599685Y-100581517D01*
X143589906Y-100592533D01*
X143307422Y-100875018D01*
X143246099Y-100908503D01*
X143219741Y-100911337D01*
X142944961Y-100911337D01*
X142877922Y-100891652D01*
X142857280Y-100875018D01*
X142843601Y-100861339D01*
X142843599Y-100861337D01*
X142784145Y-100827011D01*
X142729472Y-100795445D01*
X142665824Y-100778391D01*
X142602177Y-100761337D01*
X142470393Y-100761337D01*
X142343097Y-100795445D01*
X142228971Y-100861337D01*
X142228968Y-100861339D01*
X142135787Y-100954520D01*
X142135785Y-100954523D01*
X142069893Y-101068649D01*
X142035785Y-101195945D01*
X142035785Y-101327728D01*
X142069893Y-101455024D01*
X142097558Y-101502940D01*
X142135785Y-101569151D01*
X142228971Y-101662337D01*
X142228974Y-101662338D01*
X142228977Y-101662341D01*
X142278185Y-101690752D01*
X142293464Y-101706776D01*
X142311802Y-101719188D01*
X142317104Y-101731570D01*
X142326400Y-101741319D01*
X142330590Y-101763060D01*
X142339307Y-101783416D01*
X142337073Y-101796700D01*
X142339622Y-101809926D01*
X142331392Y-101830481D01*
X142327721Y-101852318D01*
X142318660Y-101862285D01*
X142313654Y-101874791D01*
X142295616Y-101887635D01*
X142280723Y-101904019D01*
X142260365Y-101912736D01*
X142256739Y-101915319D01*
X142248278Y-101917913D01*
X142227853Y-101923386D01*
X142227851Y-101923386D01*
X142220999Y-101925221D01*
X142220998Y-101925222D01*
X142141076Y-101971364D01*
X142141071Y-101971368D01*
X141585816Y-102526623D01*
X141585814Y-102526626D01*
X141548456Y-102591334D01*
X141548454Y-102591336D01*
X141539672Y-102606546D01*
X141539671Y-102606548D01*
X141539671Y-102606549D01*
X141527219Y-102653021D01*
X141515785Y-102695693D01*
X141515785Y-104177980D01*
X141533021Y-104242307D01*
X141533021Y-104242308D01*
X141539669Y-104267122D01*
X141539670Y-104267123D01*
X141585812Y-104347045D01*
X141585816Y-104347050D01*
X142254086Y-105015320D01*
X142268789Y-105042247D01*
X142285382Y-105068066D01*
X142286273Y-105074266D01*
X142287571Y-105076643D01*
X142290405Y-105103001D01*
X142290405Y-105152377D01*
X142286180Y-105184469D01*
X142285785Y-105185939D01*
X142285785Y-105317728D01*
X142319893Y-105445024D01*
X142348229Y-105494102D01*
X142385785Y-105559151D01*
X142478971Y-105652337D01*
X142593099Y-105718229D01*
X142720393Y-105752337D01*
X142720395Y-105752337D01*
X142852175Y-105752337D01*
X142852177Y-105752337D01*
X142979471Y-105718229D01*
X143093599Y-105652337D01*
X143186785Y-105559151D01*
X143252677Y-105445023D01*
X143286785Y-105317729D01*
X143286785Y-105185945D01*
X143252677Y-105058651D01*
X143186785Y-104944523D01*
X143093599Y-104851337D01*
X143002679Y-104798844D01*
X142995327Y-104792250D01*
X142989340Y-104789946D01*
X142976655Y-104775502D01*
X142964644Y-104764730D01*
X142960665Y-104759297D01*
X142946803Y-104735288D01*
X142921375Y-104691245D01*
X142881919Y-104651789D01*
X142876296Y-104644112D01*
X142867531Y-104619843D01*
X142855166Y-104597198D01*
X142855858Y-104587520D01*
X142852563Y-104578397D01*
X142858309Y-104553246D01*
X142860150Y-104527506D01*
X142865964Y-104519738D01*
X142868125Y-104510283D01*
X142886557Y-104492230D01*
X142902022Y-104471573D01*
X142913187Y-104466148D01*
X142918042Y-104461395D01*
X142926626Y-104459620D01*
X142944233Y-104451068D01*
X143029471Y-104428229D01*
X143143599Y-104362337D01*
X143157280Y-104348656D01*
X143218603Y-104315171D01*
X143244961Y-104312337D01*
X143862427Y-104312337D01*
X143862429Y-104312337D01*
X143951573Y-104288451D01*
X143967042Y-104279520D01*
X143967043Y-104279520D01*
X144031490Y-104242311D01*
X144031489Y-104242311D01*
X144031497Y-104242307D01*
X146030470Y-102243334D01*
X146076614Y-102163410D01*
X146089170Y-102116549D01*
X146089664Y-102114708D01*
X146091564Y-102107614D01*
X146100500Y-102074266D01*
X146100500Y-99474000D01*
X146103050Y-99465314D01*
X146101762Y-99456353D01*
X146112740Y-99432312D01*
X146120185Y-99406961D01*
X146127025Y-99401033D01*
X146130787Y-99392797D01*
X146153021Y-99378507D01*
X146172989Y-99361206D01*
X146183503Y-99358918D01*
X146189565Y-99355023D01*
X146224500Y-99350000D01*
X146275500Y-99350000D01*
X146342539Y-99369685D01*
X146388294Y-99422489D01*
X146399500Y-99474000D01*
X146399500Y-100146143D01*
X146423387Y-100235290D01*
X146423388Y-100235293D01*
X146469526Y-100315205D01*
X146469529Y-100315209D01*
X146469531Y-100315212D01*
X146534788Y-100380469D01*
X146534791Y-100380470D01*
X146534794Y-100380473D01*
X146614706Y-100426611D01*
X146614707Y-100426611D01*
X146614712Y-100426614D01*
X146703856Y-100450500D01*
X146703858Y-100450500D01*
X146796142Y-100450500D01*
X146796144Y-100450500D01*
X146885288Y-100426614D01*
X146885292Y-100426612D01*
X146903143Y-100416305D01*
X146937998Y-100396180D01*
X147005898Y-100379707D01*
X147062000Y-100396180D01*
X147077397Y-100405069D01*
X147114709Y-100426613D01*
X147114711Y-100426613D01*
X147114712Y-100426614D01*
X147203856Y-100450500D01*
X147203858Y-100450500D01*
X147296142Y-100450500D01*
X147296144Y-100450500D01*
X147385288Y-100426614D01*
X147465212Y-100380469D01*
X147530469Y-100315212D01*
X147576614Y-100235288D01*
X147600500Y-100146144D01*
X147600500Y-99664319D01*
X147620185Y-99597280D01*
X147662499Y-99556932D01*
X147708334Y-99530470D01*
X147852485Y-99386319D01*
X147913808Y-99352834D01*
X147940166Y-99350000D01*
X148917789Y-99350000D01*
X148941971Y-99352381D01*
X148982346Y-99360412D01*
X149027043Y-99378927D01*
X149050913Y-99394877D01*
X149085122Y-99429086D01*
X149101072Y-99452956D01*
X149119588Y-99497655D01*
X149127617Y-99538022D01*
X149130000Y-99562210D01*
X149130000Y-100775500D01*
X149110315Y-100842539D01*
X149057511Y-100888294D01*
X149006000Y-100899500D01*
X148353856Y-100899500D01*
X148264712Y-100923386D01*
X148264711Y-100923386D01*
X148264709Y-100923387D01*
X148264706Y-100923388D01*
X148184794Y-100969526D01*
X148184785Y-100969533D01*
X148119533Y-101034785D01*
X148119526Y-101034794D01*
X148073388Y-101114706D01*
X148073387Y-101114709D01*
X148073386Y-101114711D01*
X148073386Y-101114712D01*
X148049500Y-101203856D01*
X148049500Y-101296144D01*
X148065534Y-101355985D01*
X148073387Y-101385290D01*
X148073387Y-101385291D01*
X148103819Y-101438000D01*
X148120292Y-101505900D01*
X148103819Y-101562000D01*
X148073387Y-101614708D01*
X148073387Y-101614709D01*
X148073386Y-101614711D01*
X148073386Y-101614712D01*
X148049500Y-101703856D01*
X148049500Y-101796144D01*
X148070573Y-101874791D01*
X148073387Y-101885290D01*
X148073387Y-101885291D01*
X148103819Y-101938000D01*
X148120292Y-102005900D01*
X148103819Y-102062000D01*
X148073387Y-102114708D01*
X148073387Y-102114709D01*
X148073386Y-102114711D01*
X148073386Y-102114712D01*
X148049500Y-102203856D01*
X148049500Y-102296143D01*
X148073387Y-102385290D01*
X148073388Y-102385293D01*
X148119526Y-102465205D01*
X148119529Y-102465209D01*
X148119531Y-102465212D01*
X148184788Y-102530469D01*
X148184791Y-102530470D01*
X148184794Y-102530473D01*
X148264706Y-102576611D01*
X148264707Y-102576611D01*
X148264712Y-102576614D01*
X148353856Y-102600500D01*
X148353858Y-102600500D01*
X149006000Y-102600500D01*
X149014685Y-102603050D01*
X149023647Y-102601762D01*
X149047687Y-102612740D01*
X149073039Y-102620185D01*
X149078966Y-102627025D01*
X149087203Y-102630787D01*
X149101492Y-102653021D01*
X149118794Y-102672989D01*
X149121081Y-102683503D01*
X149124977Y-102689565D01*
X149130000Y-102724500D01*
X149130000Y-102775500D01*
X149110315Y-102842539D01*
X149057511Y-102888294D01*
X149006000Y-102899500D01*
X148103856Y-102899500D01*
X148014712Y-102923386D01*
X148014711Y-102923386D01*
X148014709Y-102923387D01*
X148014706Y-102923388D01*
X147934794Y-102969526D01*
X147934785Y-102969533D01*
X146841137Y-104063181D01*
X146779814Y-104096666D01*
X146753456Y-104099500D01*
X146734108Y-104099500D01*
X146606812Y-104133608D01*
X146492686Y-104199500D01*
X146492683Y-104199502D01*
X146399502Y-104292683D01*
X146399500Y-104292686D01*
X146333608Y-104406812D01*
X146299500Y-104534108D01*
X146299500Y-104665891D01*
X146333608Y-104793187D01*
X146336875Y-104798845D01*
X146399500Y-104907314D01*
X146492686Y-105000500D01*
X146606814Y-105066392D01*
X146734108Y-105100500D01*
X146734110Y-105100500D01*
X146865890Y-105100500D01*
X146865892Y-105100500D01*
X146993186Y-105066392D01*
X147107314Y-105000500D01*
X147200500Y-104907314D01*
X147266392Y-104793186D01*
X147300500Y-104665892D01*
X147300500Y-104646543D01*
X147320185Y-104579504D01*
X147336819Y-104558862D01*
X147583345Y-104312336D01*
X147853190Y-104042490D01*
X147914511Y-104009007D01*
X147984202Y-104013991D01*
X148040136Y-104055862D01*
X148064553Y-104121327D01*
X148060644Y-104162265D01*
X148049500Y-104203856D01*
X148049500Y-104296144D01*
X148067236Y-104362337D01*
X148073387Y-104385290D01*
X148073387Y-104385291D01*
X148103819Y-104438000D01*
X148120292Y-104505900D01*
X148103819Y-104562000D01*
X148073387Y-104614708D01*
X148073387Y-104614709D01*
X148073386Y-104614711D01*
X148073386Y-104614712D01*
X148049500Y-104703856D01*
X148049500Y-104796144D01*
X148064289Y-104851339D01*
X148073387Y-104885290D01*
X148073387Y-104885291D01*
X148103819Y-104938000D01*
X148120292Y-105005900D01*
X148103819Y-105062000D01*
X148073387Y-105114708D01*
X148073387Y-105114709D01*
X148073386Y-105114711D01*
X148073386Y-105114712D01*
X148049500Y-105203856D01*
X148049500Y-105296144D01*
X148055283Y-105317728D01*
X148073387Y-105385290D01*
X148073387Y-105385291D01*
X148103819Y-105438000D01*
X148120292Y-105505900D01*
X148103819Y-105562000D01*
X148073387Y-105614708D01*
X148073387Y-105614709D01*
X148073386Y-105614711D01*
X148073386Y-105614712D01*
X148049500Y-105703856D01*
X148049500Y-105796144D01*
X148071168Y-105877011D01*
X148073387Y-105885290D01*
X148073387Y-105885291D01*
X148103819Y-105938000D01*
X148120292Y-106005900D01*
X148103819Y-106062000D01*
X148073387Y-106114708D01*
X148073387Y-106114709D01*
X148049500Y-106203856D01*
X148049500Y-106296143D01*
X148073387Y-106385290D01*
X148073387Y-106385291D01*
X148103819Y-106438000D01*
X148120292Y-106505900D01*
X148103819Y-106562000D01*
X148073387Y-106614708D01*
X148073387Y-106614709D01*
X148073386Y-106614711D01*
X148073386Y-106614712D01*
X148049500Y-106703856D01*
X148049500Y-106796144D01*
X148054253Y-106813884D01*
X148073387Y-106885290D01*
X148073387Y-106885291D01*
X148103819Y-106938000D01*
X148120292Y-107005900D01*
X148103819Y-107062000D01*
X148073387Y-107114708D01*
X148073387Y-107114709D01*
X148073386Y-107114711D01*
X148073386Y-107114712D01*
X148049500Y-107203856D01*
X148049500Y-107296144D01*
X148063037Y-107346666D01*
X148073387Y-107385290D01*
X148073387Y-107385291D01*
X148103819Y-107438000D01*
X148120292Y-107505900D01*
X148103819Y-107562000D01*
X148073387Y-107614708D01*
X148073387Y-107614709D01*
X148073386Y-107614711D01*
X148073386Y-107614712D01*
X148049500Y-107703856D01*
X148049500Y-107796144D01*
X148059780Y-107834511D01*
X148073387Y-107885290D01*
X148073387Y-107885291D01*
X148103819Y-107938000D01*
X148120292Y-108005900D01*
X148103819Y-108062000D01*
X148073387Y-108114708D01*
X148073387Y-108114709D01*
X148049500Y-108203856D01*
X148049500Y-108296143D01*
X148073387Y-108385290D01*
X148073388Y-108385293D01*
X148119526Y-108465205D01*
X148119529Y-108465209D01*
X148119531Y-108465212D01*
X148184788Y-108530469D01*
X148184791Y-108530470D01*
X148184794Y-108530473D01*
X148264706Y-108576611D01*
X148264707Y-108576611D01*
X148264712Y-108576614D01*
X148353856Y-108600500D01*
X148353858Y-108600500D01*
X149006000Y-108600500D01*
X149073039Y-108620185D01*
X149118794Y-108672989D01*
X149130000Y-108724500D01*
X149130000Y-110284288D01*
X149127621Y-110308459D01*
X149119605Y-110348794D01*
X149101124Y-110393457D01*
X149085205Y-110417310D01*
X149051051Y-110451514D01*
X149027216Y-110467472D01*
X148982580Y-110486020D01*
X148967003Y-110489139D01*
X148942258Y-110494094D01*
X148918097Y-110496508D01*
X147224683Y-110499012D01*
X147157615Y-110479426D01*
X147111782Y-110426690D01*
X147100500Y-110375012D01*
X147100500Y-109503858D01*
X147100500Y-109503856D01*
X147076614Y-109414712D01*
X147030470Y-109334788D01*
X146336819Y-108641137D01*
X146303334Y-108579814D01*
X146300500Y-108553456D01*
X146300500Y-108534110D01*
X146300500Y-108534108D01*
X146266392Y-108406814D01*
X146200500Y-108292686D01*
X146107314Y-108199500D01*
X146022442Y-108150499D01*
X145993187Y-108133608D01*
X145922653Y-108114709D01*
X145865892Y-108099500D01*
X145734108Y-108099500D01*
X145606812Y-108133608D01*
X145492686Y-108199500D01*
X145492683Y-108199502D01*
X145399502Y-108292683D01*
X145399500Y-108292686D01*
X145333608Y-108406812D01*
X145299500Y-108534108D01*
X145299500Y-108665891D01*
X145333608Y-108793187D01*
X145366554Y-108850250D01*
X145399500Y-108907314D01*
X145492686Y-109000500D01*
X145606814Y-109066392D01*
X145734108Y-109100500D01*
X145753456Y-109100500D01*
X145820495Y-109120185D01*
X145841137Y-109136819D01*
X146103776Y-109399458D01*
X146115757Y-109421400D01*
X146131211Y-109441050D01*
X146132212Y-109451535D01*
X146137261Y-109460781D01*
X146135477Y-109485716D01*
X146137855Y-109510603D01*
X146133028Y-109519965D01*
X146132277Y-109530473D01*
X146117295Y-109550486D01*
X146105840Y-109572707D01*
X146093244Y-109582612D01*
X146090405Y-109586406D01*
X146078098Y-109594525D01*
X146062003Y-109603818D01*
X145994103Y-109620292D01*
X145938000Y-109603819D01*
X145885290Y-109573387D01*
X145885289Y-109573386D01*
X145885288Y-109573386D01*
X145796144Y-109549500D01*
X145703856Y-109549500D01*
X145614712Y-109573386D01*
X145614711Y-109573386D01*
X145614709Y-109573387D01*
X145614708Y-109573387D01*
X145562000Y-109603819D01*
X145494100Y-109620292D01*
X145438000Y-109603819D01*
X145385290Y-109573387D01*
X145385289Y-109573386D01*
X145385288Y-109573386D01*
X145296144Y-109549500D01*
X145203856Y-109549500D01*
X145114712Y-109573386D01*
X145114711Y-109573386D01*
X145114709Y-109573387D01*
X145114708Y-109573387D01*
X145062000Y-109603819D01*
X144994100Y-109620292D01*
X144938000Y-109603819D01*
X144885290Y-109573387D01*
X144885289Y-109573386D01*
X144885288Y-109573386D01*
X144796144Y-109549500D01*
X144703856Y-109549500D01*
X144614712Y-109573386D01*
X144614711Y-109573386D01*
X144614709Y-109573387D01*
X144614708Y-109573387D01*
X144562000Y-109603819D01*
X144494100Y-109620292D01*
X144438000Y-109603819D01*
X144385290Y-109573387D01*
X144385289Y-109573386D01*
X144385288Y-109573386D01*
X144296144Y-109549500D01*
X144203856Y-109549500D01*
X144114712Y-109573386D01*
X144114711Y-109573386D01*
X144114709Y-109573387D01*
X144114708Y-109573387D01*
X144062000Y-109603819D01*
X143994100Y-109620292D01*
X143938000Y-109603819D01*
X143885290Y-109573387D01*
X143885289Y-109573386D01*
X143885288Y-109573386D01*
X143796144Y-109549500D01*
X143703856Y-109549500D01*
X143614712Y-109573386D01*
X143614711Y-109573386D01*
X143614709Y-109573387D01*
X143614708Y-109573387D01*
X143562000Y-109603819D01*
X143494100Y-109620292D01*
X143438000Y-109603819D01*
X143385290Y-109573387D01*
X143385289Y-109573386D01*
X143385288Y-109573386D01*
X143296144Y-109549500D01*
X143203856Y-109549500D01*
X143114712Y-109573386D01*
X143114711Y-109573386D01*
X143114709Y-109573387D01*
X143114708Y-109573387D01*
X143062000Y-109603819D01*
X142994100Y-109620292D01*
X142938000Y-109603819D01*
X142885290Y-109573387D01*
X142885289Y-109573386D01*
X142885288Y-109573386D01*
X142796144Y-109549500D01*
X142703856Y-109549500D01*
X142614712Y-109573386D01*
X142614711Y-109573386D01*
X142614709Y-109573387D01*
X142614708Y-109573387D01*
X142562000Y-109603819D01*
X142494100Y-109620292D01*
X142438000Y-109603819D01*
X142385290Y-109573387D01*
X142385289Y-109573386D01*
X142385288Y-109573386D01*
X142296144Y-109549500D01*
X142203856Y-109549500D01*
X142114712Y-109573386D01*
X142114711Y-109573386D01*
X142114709Y-109573387D01*
X142114708Y-109573387D01*
X142062000Y-109603819D01*
X141994100Y-109620292D01*
X141938000Y-109603819D01*
X141885290Y-109573387D01*
X141885289Y-109573386D01*
X141885288Y-109573386D01*
X141796144Y-109549500D01*
X141703856Y-109549500D01*
X141614712Y-109573386D01*
X141614711Y-109573386D01*
X141614709Y-109573387D01*
X141614708Y-109573387D01*
X141562000Y-109603819D01*
X141494100Y-109620292D01*
X141438000Y-109603819D01*
X141385290Y-109573387D01*
X141385289Y-109573386D01*
X141385288Y-109573386D01*
X141296144Y-109549500D01*
X141203856Y-109549500D01*
X141114712Y-109573386D01*
X141114711Y-109573386D01*
X141114709Y-109573387D01*
X141114708Y-109573387D01*
X141062000Y-109603819D01*
X140994100Y-109620292D01*
X140938000Y-109603819D01*
X140885290Y-109573387D01*
X140885289Y-109573386D01*
X140885288Y-109573386D01*
X140796144Y-109549500D01*
X140703856Y-109549500D01*
X140614712Y-109573386D01*
X140614711Y-109573386D01*
X140614709Y-109573387D01*
X140614708Y-109573387D01*
X140562000Y-109603819D01*
X140494100Y-109620292D01*
X140438000Y-109603819D01*
X140385290Y-109573387D01*
X140385289Y-109573386D01*
X140385288Y-109573386D01*
X140296144Y-109549500D01*
X140203856Y-109549500D01*
X140114712Y-109573386D01*
X140114711Y-109573386D01*
X140114709Y-109573387D01*
X140114708Y-109573387D01*
X140062000Y-109603819D01*
X139994100Y-109620292D01*
X139938000Y-109603819D01*
X139885290Y-109573387D01*
X139885289Y-109573386D01*
X139885288Y-109573386D01*
X139796144Y-109549500D01*
X139703856Y-109549500D01*
X139614712Y-109573386D01*
X139614711Y-109573386D01*
X139614709Y-109573387D01*
X139614706Y-109573388D01*
X139534794Y-109619526D01*
X139534785Y-109619533D01*
X139469533Y-109684785D01*
X139469526Y-109684794D01*
X139423388Y-109764706D01*
X139423387Y-109764709D01*
X139399500Y-109853856D01*
X139399500Y-110386772D01*
X139379815Y-110453811D01*
X139327011Y-110499566D01*
X139275683Y-110510772D01*
X137992518Y-110512670D01*
X137968305Y-110510319D01*
X137927892Y-110502336D01*
X137883124Y-110483851D01*
X137859220Y-110467910D01*
X137824955Y-110433695D01*
X137816967Y-110421755D01*
X137808979Y-110409815D01*
X137790431Y-110365082D01*
X137782385Y-110324672D01*
X137780000Y-110300465D01*
X137780000Y-108724500D01*
X137799685Y-108657461D01*
X137852489Y-108611706D01*
X137904000Y-108600500D01*
X138646142Y-108600500D01*
X138646144Y-108600500D01*
X138735288Y-108576614D01*
X138815212Y-108530469D01*
X138880469Y-108465212D01*
X138926614Y-108385288D01*
X138950500Y-108296144D01*
X138950500Y-108203856D01*
X138926614Y-108114712D01*
X138926613Y-108114711D01*
X138926613Y-108114709D01*
X138896181Y-108062002D01*
X138879707Y-107994102D01*
X138896181Y-107937998D01*
X138926613Y-107885290D01*
X138926614Y-107885288D01*
X138950500Y-107796144D01*
X138950500Y-107703856D01*
X138926614Y-107614712D01*
X138926613Y-107614711D01*
X138926613Y-107614709D01*
X138896181Y-107562002D01*
X138879707Y-107494102D01*
X138896181Y-107437998D01*
X138926613Y-107385290D01*
X138936203Y-107349500D01*
X138950500Y-107296144D01*
X138950500Y-107203856D01*
X138926614Y-107114712D01*
X138926613Y-107114711D01*
X138926613Y-107114709D01*
X138896181Y-107062002D01*
X138895240Y-107058125D01*
X138892530Y-107055198D01*
X138887071Y-107024453D01*
X138879707Y-106994102D01*
X138880811Y-106989199D01*
X138880315Y-106986405D01*
X138883912Y-106975429D01*
X138889137Y-106952231D01*
X138892199Y-106944893D01*
X138926614Y-106885288D01*
X138943697Y-106821532D01*
X138946890Y-106813884D01*
X138963873Y-106792927D01*
X138977909Y-106769900D01*
X138985539Y-106766193D01*
X138990881Y-106759602D01*
X139016495Y-106751155D01*
X139040755Y-106739370D01*
X139049178Y-106740377D01*
X139057236Y-106737720D01*
X139083352Y-106744462D01*
X139110131Y-106747664D01*
X139118997Y-106753665D01*
X139124888Y-106755186D01*
X139131003Y-106761790D01*
X139149001Y-106773972D01*
X140209540Y-107834511D01*
X140265489Y-107890460D01*
X140265491Y-107890461D01*
X140265495Y-107890464D01*
X140334004Y-107930017D01*
X140334011Y-107930021D01*
X140410438Y-107950500D01*
X141491324Y-107950500D01*
X141558363Y-107970185D01*
X141579005Y-107986819D01*
X141642686Y-108050500D01*
X141756814Y-108116392D01*
X141884108Y-108150500D01*
X141884110Y-108150500D01*
X142015890Y-108150500D01*
X142015892Y-108150500D01*
X142143186Y-108116392D01*
X142257314Y-108050500D01*
X142350500Y-107957314D01*
X142416392Y-107843186D01*
X142450500Y-107715892D01*
X142450500Y-107584108D01*
X142416392Y-107456814D01*
X142350500Y-107342686D01*
X142257314Y-107249500D01*
X142178260Y-107203858D01*
X142143187Y-107183608D01*
X142079539Y-107166554D01*
X142015892Y-107149500D01*
X141884108Y-107149500D01*
X141756812Y-107183608D01*
X141642686Y-107249500D01*
X141642683Y-107249502D01*
X141579005Y-107313181D01*
X141517682Y-107346666D01*
X141491324Y-107349500D01*
X140625833Y-107349500D01*
X140558794Y-107329815D01*
X140538152Y-107313181D01*
X139234512Y-106009541D01*
X139234504Y-106009535D01*
X139165995Y-105969982D01*
X139165990Y-105969979D01*
X139140513Y-105963152D01*
X139089562Y-105949500D01*
X139089560Y-105949500D01*
X139071008Y-105949500D01*
X139003969Y-105929815D01*
X138958214Y-105877011D01*
X138948270Y-105807853D01*
X138950191Y-105798484D01*
X138950500Y-105796142D01*
X138950500Y-105703858D01*
X138950500Y-105703856D01*
X138926614Y-105614712D01*
X138926613Y-105614711D01*
X138926613Y-105614709D01*
X138896181Y-105562002D01*
X138879707Y-105494102D01*
X138896181Y-105437998D01*
X138926613Y-105385290D01*
X138926614Y-105385288D01*
X138950500Y-105296144D01*
X138950500Y-105203856D01*
X138926614Y-105114712D01*
X138926613Y-105114711D01*
X138926613Y-105114709D01*
X138896181Y-105062002D01*
X138879707Y-104994102D01*
X138896181Y-104937998D01*
X138926613Y-104885290D01*
X138926614Y-104885288D01*
X138950500Y-104796144D01*
X138950500Y-104703856D01*
X138926614Y-104614712D01*
X138926613Y-104614711D01*
X138926613Y-104614709D01*
X138896181Y-104562002D01*
X138879707Y-104494102D01*
X138896181Y-104437998D01*
X138901822Y-104428229D01*
X138926614Y-104385288D01*
X138950500Y-104296144D01*
X138950500Y-104203856D01*
X138926614Y-104114712D01*
X138926613Y-104114711D01*
X138926613Y-104114709D01*
X138896181Y-104062002D01*
X138879707Y-103994102D01*
X138888040Y-103954951D01*
X138891466Y-103946164D01*
X138926614Y-103885288D01*
X138950500Y-103796144D01*
X138950500Y-103794774D01*
X138954152Y-103785409D01*
X138971496Y-103762940D01*
X138986269Y-103738705D01*
X138992566Y-103735645D01*
X138996847Y-103730101D01*
X139023586Y-103720576D01*
X139049115Y-103708175D01*
X139056069Y-103709006D01*
X139062665Y-103706657D01*
X139090301Y-103713098D01*
X139118491Y-103716469D01*
X139123892Y-103720928D01*
X139130711Y-103722518D01*
X139150479Y-103742880D01*
X139172369Y-103760954D01*
X139177063Y-103768453D01*
X139199500Y-103807314D01*
X139292686Y-103900500D01*
X139406814Y-103966392D01*
X139534108Y-104000500D01*
X139534110Y-104000500D01*
X139665890Y-104000500D01*
X139665892Y-104000500D01*
X139793186Y-103966392D01*
X139907314Y-103900500D01*
X140000500Y-103807314D01*
X140066392Y-103693186D01*
X140100500Y-103565892D01*
X140100500Y-103434108D01*
X140066392Y-103306814D01*
X140000500Y-103192686D01*
X139907314Y-103099500D01*
X139850250Y-103066554D01*
X139793187Y-103033608D01*
X139729539Y-103016554D01*
X139665892Y-102999500D01*
X139665891Y-102999500D01*
X139646544Y-102999500D01*
X139579505Y-102979815D01*
X139558863Y-102963181D01*
X139065213Y-102469531D01*
X139065208Y-102469527D01*
X139008034Y-102436518D01*
X138959818Y-102385951D01*
X138946595Y-102317344D01*
X138950260Y-102297037D01*
X138950500Y-102296144D01*
X138950500Y-102203856D01*
X138926614Y-102114712D01*
X138926613Y-102114711D01*
X138926613Y-102114709D01*
X138896181Y-102062002D01*
X138879707Y-101994102D01*
X138896181Y-101937998D01*
X138903558Y-101925222D01*
X138926614Y-101885288D01*
X138950500Y-101796144D01*
X138950500Y-101703856D01*
X138926614Y-101614712D01*
X138926613Y-101614711D01*
X138926613Y-101614709D01*
X138896181Y-101562002D01*
X138879707Y-101494102D01*
X138896181Y-101437998D01*
X138926613Y-101385290D01*
X138926614Y-101385288D01*
X138950500Y-101296144D01*
X138950500Y-101203856D01*
X138926614Y-101114712D01*
X138926611Y-101114706D01*
X138880473Y-101034794D01*
X138880470Y-101034791D01*
X138880469Y-101034788D01*
X138815212Y-100969531D01*
X138815209Y-100969529D01*
X138815205Y-100969526D01*
X138735293Y-100923388D01*
X138735290Y-100923387D01*
X138735289Y-100923386D01*
X138735288Y-100923386D01*
X138646144Y-100899500D01*
X137904000Y-100899500D01*
X137836961Y-100879815D01*
X137791206Y-100827011D01*
X137780000Y-100775500D01*
X137780000Y-99562210D01*
X137782382Y-99538022D01*
X137785906Y-99520306D01*
X137818292Y-99458396D01*
X137879008Y-99423823D01*
X137907523Y-99420500D01*
X138115890Y-99420500D01*
X138115892Y-99420500D01*
X138243186Y-99386392D01*
X138277444Y-99366612D01*
X138339444Y-99350000D01*
X139775500Y-99350000D01*
X139842539Y-99369685D01*
G37*
%TD.AperFunction*%
%TD*%
%TA.AperFunction,Conductor*%
%TO.N,/3V3*%
G36*
X161677349Y-98816360D02*
G01*
X163614600Y-99170736D01*
X163677001Y-99202161D01*
X163712507Y-99262337D01*
X163716285Y-99292711D01*
X163716285Y-99713509D01*
X163705972Y-99763018D01*
X163397817Y-100470631D01*
X163376505Y-100501918D01*
X163377245Y-100502526D01*
X163373378Y-100507237D01*
X163286325Y-100637520D01*
X163286318Y-100637532D01*
X163226356Y-100782295D01*
X163226354Y-100782303D01*
X163198910Y-100920270D01*
X163190981Y-100945587D01*
X163073724Y-101214846D01*
X163028910Y-101268451D01*
X162962229Y-101289318D01*
X162960036Y-101289337D01*
X162197398Y-101289337D01*
X162185210Y-101288737D01*
X160278097Y-101100380D01*
X160213317Y-101074201D01*
X160172974Y-101017156D01*
X160166285Y-100976980D01*
X160166285Y-100538054D01*
X160175037Y-100492294D01*
X160183639Y-100470631D01*
X160810219Y-98892576D01*
X160853254Y-98837534D01*
X160919216Y-98814495D01*
X160925467Y-98814337D01*
X161655037Y-98814337D01*
X161677349Y-98816360D01*
G37*
%TD.AperFunction*%
%TD*%
%TA.AperFunction,Conductor*%
%TO.N,/3V3*%
G36*
X157408059Y-104881061D02*
G01*
X157513223Y-104894906D01*
X157544491Y-104903284D01*
X157634918Y-104940740D01*
X157662952Y-104956925D01*
X157740602Y-105016509D01*
X157763491Y-105039398D01*
X157823074Y-105117048D01*
X157839259Y-105145081D01*
X157876715Y-105235508D01*
X157885093Y-105266775D01*
X157898939Y-105371939D01*
X157900000Y-105388125D01*
X157900000Y-107920389D01*
X157883387Y-107982388D01*
X157845431Y-108048133D01*
X157819500Y-108144906D01*
X157819500Y-108144908D01*
X157819500Y-108398019D01*
X157810854Y-108427463D01*
X157804330Y-108457450D01*
X157800577Y-108462462D01*
X157799815Y-108465058D01*
X157783180Y-108485700D01*
X157783178Y-108485703D01*
X157769610Y-108499270D01*
X157738227Y-108522071D01*
X157675653Y-108553954D01*
X157638755Y-108565942D01*
X157569397Y-108576927D01*
X157530603Y-108576927D01*
X157461244Y-108565942D01*
X157424346Y-108553954D01*
X157361772Y-108522071D01*
X157359863Y-108520684D01*
X157358640Y-108520418D01*
X157330386Y-108499267D01*
X157316819Y-108485700D01*
X157283334Y-108424377D01*
X157280500Y-108398019D01*
X157280500Y-108144908D01*
X157280500Y-108144906D01*
X157254569Y-108048133D01*
X157216612Y-107982388D01*
X157200000Y-107920389D01*
X157200000Y-107280000D01*
X156809756Y-107280000D01*
X156790359Y-107278473D01*
X156771258Y-107275447D01*
X156695792Y-107263495D01*
X156658895Y-107251507D01*
X156582383Y-107212522D01*
X156550997Y-107189718D01*
X156490281Y-107129002D01*
X156467477Y-107097616D01*
X156428492Y-107021104D01*
X156416504Y-106984206D01*
X156401527Y-106889641D01*
X156400000Y-106870244D01*
X156400000Y-105880000D01*
X155900000Y-105880000D01*
X155508126Y-105880000D01*
X155491941Y-105878939D01*
X155478917Y-105877224D01*
X155386775Y-105865093D01*
X155355508Y-105856715D01*
X155265081Y-105819259D01*
X155237048Y-105803074D01*
X155159398Y-105743491D01*
X155136508Y-105720601D01*
X155076925Y-105642951D01*
X155060740Y-105614918D01*
X155023284Y-105524491D01*
X155014906Y-105493224D01*
X155002130Y-105396179D01*
X155002130Y-105363820D01*
X155014906Y-105266773D01*
X155023284Y-105235508D01*
X155060740Y-105145081D01*
X155076923Y-105117050D01*
X155136513Y-105039392D01*
X155159392Y-105016513D01*
X155237050Y-104956923D01*
X155265079Y-104940740D01*
X155355509Y-104903283D01*
X155386775Y-104894906D01*
X155491941Y-104881061D01*
X155508126Y-104880000D01*
X157391874Y-104880000D01*
X157408059Y-104881061D01*
G37*
%TD.AperFunction*%
%TD*%
%TA.AperFunction,Conductor*%
%TO.N,/3V3*%
G36*
X166452902Y-111695454D02*
G01*
X166496740Y-111704546D01*
X166506598Y-111708936D01*
X166513819Y-111709386D01*
X166544950Y-111726015D01*
X166581031Y-111752510D01*
X166600618Y-111770416D01*
X167001520Y-112224770D01*
X167973819Y-113326709D01*
X167987050Y-113344757D01*
X168006665Y-113377315D01*
X168022432Y-113419013D01*
X168029265Y-113456404D01*
X168031285Y-113478695D01*
X168031285Y-113730325D01*
X168027183Y-113761957D01*
X168013601Y-113813438D01*
X167982391Y-113868469D01*
X167956804Y-113894654D01*
X167902511Y-113927125D01*
X167868812Y-113936854D01*
X167851359Y-113941893D01*
X167819831Y-113946725D01*
X167169505Y-113961762D01*
X167168588Y-113961780D01*
X167167125Y-113961803D01*
X167165508Y-113961818D01*
X167164270Y-113961821D01*
X167163972Y-113961821D01*
X167163076Y-113961821D01*
X163375946Y-113943279D01*
X163346779Y-113939652D01*
X163298907Y-113927811D01*
X163286850Y-113921533D01*
X163276762Y-113920046D01*
X163247140Y-113900858D01*
X163238499Y-113893315D01*
X163221459Y-113878441D01*
X163187756Y-113830791D01*
X163175173Y-113799103D01*
X163167006Y-113741317D01*
X163171789Y-113692238D01*
X163178086Y-113663532D01*
X163242377Y-113478695D01*
X163272234Y-113392856D01*
X163312849Y-113336006D01*
X163327353Y-113326206D01*
X163360001Y-113307357D01*
X163471805Y-113195553D01*
X163550862Y-113058621D01*
X163591785Y-112905894D01*
X163591785Y-112747780D01*
X163591785Y-112495100D01*
X163592451Y-112491153D01*
X163591935Y-112489010D01*
X163598667Y-112454364D01*
X163603740Y-112439776D01*
X163654063Y-112295099D01*
X163662823Y-112275551D01*
X163680542Y-112243707D01*
X163707414Y-112210530D01*
X163734891Y-112186578D01*
X163752188Y-112173955D01*
X164435971Y-111760410D01*
X164462382Y-111744435D01*
X164477073Y-111736840D01*
X164477654Y-111736586D01*
X164503026Y-111725547D01*
X164534769Y-111716524D01*
X164562794Y-111712477D01*
X164579266Y-111711211D01*
X164734042Y-111709675D01*
X166426497Y-111692877D01*
X166452902Y-111695454D01*
G37*
%TD.AperFunction*%
%TD*%
%TA.AperFunction,Conductor*%
%TO.N,GND*%
G36*
X160408059Y-104981061D02*
G01*
X160513223Y-104994906D01*
X160544491Y-105003284D01*
X160634918Y-105040740D01*
X160662952Y-105056925D01*
X160740602Y-105116509D01*
X160763491Y-105139398D01*
X160823074Y-105217048D01*
X160839259Y-105245081D01*
X160876715Y-105335508D01*
X160885093Y-105366775D01*
X160898939Y-105471939D01*
X160900000Y-105488125D01*
X160900000Y-108852337D01*
X160880315Y-108919376D01*
X160827511Y-108965131D01*
X160776000Y-108976337D01*
X160725393Y-108976337D01*
X160598097Y-109010445D01*
X160483971Y-109076337D01*
X160483968Y-109076339D01*
X160390787Y-109169520D01*
X160390785Y-109169523D01*
X160324893Y-109283649D01*
X160312611Y-109329487D01*
X160290785Y-109410945D01*
X160290785Y-109542729D01*
X160323596Y-109665184D01*
X160324894Y-109670025D01*
X160324894Y-109670026D01*
X160335560Y-109688500D01*
X160336991Y-109694401D01*
X160340967Y-109698989D01*
X160345131Y-109727953D01*
X160352033Y-109756400D01*
X160350046Y-109762138D01*
X160350911Y-109768147D01*
X160338751Y-109794771D01*
X160329180Y-109822427D01*
X160324408Y-109826179D01*
X160321886Y-109831703D01*
X160297263Y-109847526D01*
X160274259Y-109865618D01*
X160266908Y-109867034D01*
X160263108Y-109869477D01*
X160228173Y-109874500D01*
X160198941Y-109874500D01*
X160179543Y-109872973D01*
X160094485Y-109859501D01*
X160094481Y-109859501D01*
X159905518Y-109859501D01*
X159905514Y-109859501D01*
X159820456Y-109872973D01*
X159801058Y-109874500D01*
X158408126Y-109874500D01*
X158397846Y-109874836D01*
X158394679Y-109874940D01*
X158378473Y-109876002D01*
X158365132Y-109877317D01*
X158356749Y-109878420D01*
X158352811Y-109878939D01*
X158336628Y-109880000D01*
X158286945Y-109880000D01*
X158254858Y-109875776D01*
X158250094Y-109874500D01*
X158149906Y-109874500D01*
X158145142Y-109875776D01*
X158113055Y-109880000D01*
X157636908Y-109880000D01*
X157620601Y-109879995D01*
X157600094Y-109874500D01*
X157499906Y-109874500D01*
X157481952Y-109879311D01*
X157475813Y-109879311D01*
X157469328Y-109879949D01*
X157463763Y-109879948D01*
X157462728Y-109880000D01*
X156986945Y-109880000D01*
X156954857Y-109875776D01*
X156950094Y-109874500D01*
X156849906Y-109874500D01*
X156845142Y-109875776D01*
X156813055Y-109880000D01*
X156300000Y-109880000D01*
X156300000Y-110011078D01*
X156280315Y-110078117D01*
X156263681Y-110098759D01*
X155238531Y-111123908D01*
X155238525Y-111123916D01*
X155197321Y-111195283D01*
X155197320Y-111195288D01*
X155192386Y-111203834D01*
X155188634Y-111210333D01*
X155138065Y-111258547D01*
X155080468Y-111272328D01*
X153624945Y-111263174D01*
X153608833Y-111262020D01*
X153504170Y-111247628D01*
X153473068Y-111239119D01*
X153383177Y-111201386D01*
X153355325Y-111185150D01*
X153306841Y-111147664D01*
X153278196Y-111125517D01*
X153255476Y-111102654D01*
X153196325Y-111025148D01*
X153180266Y-110997196D01*
X153143100Y-110907068D01*
X153134788Y-110875917D01*
X153121052Y-110771158D01*
X153120000Y-110755037D01*
X153120000Y-110173252D01*
X153121072Y-110156979D01*
X153135098Y-110051132D01*
X153143580Y-110019694D01*
X153181506Y-109928781D01*
X153197885Y-109900630D01*
X153258182Y-109822731D01*
X153281324Y-109799821D01*
X153359831Y-109740311D01*
X153388145Y-109724218D01*
X153479435Y-109687212D01*
X153510964Y-109679047D01*
X153616939Y-109666093D01*
X153633217Y-109665184D01*
X154700020Y-109675960D01*
X154700021Y-109675959D01*
X155100000Y-109680000D01*
X155100000Y-109679999D01*
X155100000Y-109289803D01*
X155101540Y-109270321D01*
X155103733Y-109256533D01*
X155116514Y-109176199D01*
X155128603Y-109139167D01*
X155167524Y-109063169D01*
X155190505Y-109031721D01*
X155251093Y-108971549D01*
X155282698Y-108948786D01*
X155358961Y-108910390D01*
X155396081Y-108898556D01*
X155490303Y-108884232D01*
X155509787Y-108882826D01*
X157496552Y-108896528D01*
X157496552Y-108896527D01*
X157544905Y-108896860D01*
X158000000Y-108900000D01*
X158000000Y-108899999D01*
X158000000Y-108536653D01*
X158003119Y-108509016D01*
X158004707Y-108502068D01*
X158005133Y-108501137D01*
X158009295Y-108482001D01*
X158009442Y-108481360D01*
X158009517Y-108481225D01*
X158011345Y-108474065D01*
X158016675Y-108455918D01*
X158025000Y-108398019D01*
X158025000Y-108188288D01*
X158029223Y-108156203D01*
X158032702Y-108143216D01*
X158045088Y-108113313D01*
X158061357Y-108085134D01*
X158081884Y-108035577D01*
X158098497Y-107973578D01*
X158105500Y-107920389D01*
X158105500Y-107504000D01*
X158125185Y-107436961D01*
X158177989Y-107391206D01*
X158229500Y-107380000D01*
X158400000Y-107380000D01*
X158400000Y-105488125D01*
X158401061Y-105471940D01*
X158414906Y-105366776D01*
X158414906Y-105366775D01*
X158423284Y-105335508D01*
X158460740Y-105245081D01*
X158476923Y-105217050D01*
X158536513Y-105139392D01*
X158559392Y-105116513D01*
X158637050Y-105056923D01*
X158665079Y-105040740D01*
X158755509Y-105003283D01*
X158786775Y-104994906D01*
X158891941Y-104981061D01*
X158908126Y-104980000D01*
X160391874Y-104980000D01*
X160408059Y-104981061D01*
G37*
%TD.AperFunction*%
%TD*%
%TA.AperFunction,Conductor*%
%TO.N,/VBAT*%
G36*
X160408059Y-110081061D02*
G01*
X160513223Y-110094906D01*
X160544491Y-110103284D01*
X160634918Y-110140740D01*
X160662952Y-110156925D01*
X160740602Y-110216509D01*
X160763491Y-110239398D01*
X160823074Y-110317048D01*
X160839259Y-110345081D01*
X160876715Y-110435508D01*
X160885093Y-110466775D01*
X160898939Y-110571939D01*
X160900000Y-110588125D01*
X160900000Y-112971874D01*
X160898939Y-112988059D01*
X160898939Y-112988060D01*
X160885093Y-113093224D01*
X160876715Y-113124491D01*
X160839259Y-113214918D01*
X160823074Y-113242951D01*
X160763491Y-113320601D01*
X160740601Y-113343491D01*
X160662951Y-113403074D01*
X160634918Y-113419259D01*
X160544491Y-113456715D01*
X160513224Y-113465093D01*
X160419398Y-113477446D01*
X160408058Y-113478939D01*
X160391874Y-113480000D01*
X158008126Y-113480000D01*
X157991941Y-113478939D01*
X157978917Y-113477224D01*
X157886775Y-113465093D01*
X157855508Y-113456715D01*
X157765081Y-113419259D01*
X157737048Y-113403074D01*
X157659398Y-113343491D01*
X157636508Y-113320601D01*
X157576925Y-113242951D01*
X157560740Y-113214918D01*
X157523284Y-113124491D01*
X157514906Y-113093223D01*
X157501061Y-112988059D01*
X157500000Y-112971874D01*
X157500000Y-111792210D01*
X157502381Y-111768029D01*
X157510412Y-111727651D01*
X157528927Y-111682956D01*
X157544877Y-111659086D01*
X157579086Y-111624877D01*
X157602956Y-111608927D01*
X157647653Y-111590412D01*
X157688027Y-111582381D01*
X157712211Y-111580000D01*
X157900000Y-111580000D01*
X157900000Y-110685243D01*
X157900969Y-110669768D01*
X157902845Y-110654852D01*
X157904569Y-110651867D01*
X157930500Y-110555094D01*
X157930500Y-110434981D01*
X157931469Y-110427277D01*
X157935351Y-110418361D01*
X157939939Y-110395299D01*
X157960740Y-110345081D01*
X157976923Y-110317050D01*
X158036513Y-110239392D01*
X158059392Y-110216513D01*
X158137050Y-110156923D01*
X158165079Y-110140740D01*
X158255509Y-110103283D01*
X158286775Y-110094906D01*
X158391941Y-110081061D01*
X158408126Y-110080000D01*
X160391874Y-110080000D01*
X160408059Y-110081061D01*
G37*
%TD.AperFunction*%
%TD*%
%TA.AperFunction,Conductor*%
%TO.N,Net-(U3-SW)*%
G36*
X157552347Y-110090412D02*
G01*
X157597043Y-110108927D01*
X157620913Y-110124877D01*
X157626805Y-110130769D01*
X157631537Y-110132829D01*
X157655122Y-110159086D01*
X157671072Y-110182956D01*
X157689588Y-110227655D01*
X157697617Y-110268020D01*
X157700000Y-110292210D01*
X157700000Y-110536065D01*
X157699894Y-110541186D01*
X157698507Y-110574741D01*
X157697663Y-110584939D01*
X157693513Y-110618273D01*
X157692776Y-110623339D01*
X157627925Y-111012445D01*
X157623309Y-111031091D01*
X157583830Y-111150139D01*
X157566304Y-111184196D01*
X157492373Y-111285523D01*
X157479883Y-111300116D01*
X157099999Y-111680000D01*
X157071494Y-111832033D01*
X156878059Y-112863684D01*
X156873736Y-112880296D01*
X156838023Y-112986676D01*
X156822742Y-113017330D01*
X156764206Y-113102709D01*
X156741125Y-113128010D01*
X156661466Y-113194122D01*
X156632344Y-113212145D01*
X156537634Y-113253946D01*
X156504690Y-113263315D01*
X156393556Y-113278812D01*
X156376433Y-113280000D01*
X156308126Y-113280000D01*
X156291941Y-113278939D01*
X156278917Y-113277224D01*
X156186775Y-113265093D01*
X156155508Y-113256715D01*
X156065081Y-113219259D01*
X156037047Y-113203074D01*
X156025381Y-113194122D01*
X155959397Y-113143490D01*
X155936511Y-113120603D01*
X155895124Y-113066666D01*
X155869930Y-113001497D01*
X155869500Y-112991180D01*
X155869500Y-111651986D01*
X155889185Y-111584947D01*
X155894335Y-111577539D01*
X155932376Y-111526868D01*
X155954607Y-111504069D01*
X156036484Y-111439306D01*
X156049599Y-111430240D01*
X156948573Y-110890856D01*
X156980262Y-110877416D01*
X157046867Y-110859569D01*
X157133632Y-110809476D01*
X157196983Y-110746124D01*
X157220859Y-110727484D01*
X157300000Y-110680000D01*
X157300000Y-110292210D01*
X157302381Y-110268029D01*
X157310412Y-110227651D01*
X157328927Y-110182956D01*
X157344877Y-110159086D01*
X157379086Y-110124877D01*
X157402956Y-110108927D01*
X157447652Y-110090412D01*
X157475813Y-110084811D01*
X157524187Y-110084811D01*
X157552347Y-110090412D01*
G37*
%TD.AperFunction*%
%TD*%
M02*
