M48
; DRILL file {KiCad 9.0.6} date 2025-11-24T22:39:36+0100
; FORMAT={-:-/ absolute / inch / decimal}
; #@! TF.CreationDate,2025-11-24T22:39:36+01:00
; #@! TF.GenerationSoftware,Kicad,Pcbnew,9.0.6
; #@! TF.FileFunction,Plated,1,2,PTH
FMAT,2
INCH
; #@! TA.AperFunction,Plated,PTH,ViaDrill
T1C0.0118
; #@! TA.AperFunction,Plated,PTH,ComponentDrill
T2C0.0394
%
G90
G05
T1
X5.2933Y-4.1634
X5.315Y-4.3622
X5.3464Y-4.004
X5.3593Y-4.2972
X5.378Y-4.3622
X5.4232Y-4.5472
X5.435Y-3.8945
X5.439Y-4.565
X5.4961Y-4.0748
X5.5139Y-4.4357
X5.5158Y-3.8266
X5.5472Y-4.5101
X5.5513Y-4.433
X5.5827Y-4.5118
X5.5827Y-4.435
X5.5886Y-4.2382
X5.5897Y-4.5489
X5.6117Y-3.9867
X5.6144Y-4.0587
X5.6215Y-4.1438
X5.6235Y-4.093
X5.6811Y-4.6302
X5.7283Y-3.8071
X5.7323Y-4.5846
X5.7402Y-4.2756
X5.7795Y-4.1181
X5.7992Y-3.8091
X5.8257Y-3.8886
X5.8366Y-3.8465
X5.8374Y-4.4496
X5.8425Y-3.7972
X5.8465Y-3.7536
X5.8858Y-4.5846
X5.9502Y-4.521
X5.9764Y-3.7536
X5.9764Y-3.9095
X6.0039Y-4.2717
X6.0276Y-4.1835
X6.0396Y-4.3722
X6.0467Y-4.3217
X6.0467Y-4.3453
X6.0492Y-3.8308
X6.0656Y-4.3678
X6.0709Y-3.9195
X6.09Y-4.3682
X6.0961Y-4.0109
X6.1178Y-3.9843
X6.1532Y-3.8711
X6.189Y-4.5118
X6.1929Y-4.5591
X6.2073Y-4.005
X6.248Y-4.1488
X6.248Y-4.1724
X6.248Y-4.1961
X6.2717Y-4.3102
X6.2953Y-4.3102
X6.3304Y-4.3101
X6.3898Y-4.5079
X6.3993Y-4.2117
X6.4028Y-4.1719
X6.4032Y-4.3475
X6.417Y-4.442
X6.4214Y-4.2762
X6.4823Y-4.2514
X6.4843Y-3.9213
X6.5134Y-3.8303
X6.5906Y-4.0512
X6.5984Y-3.7913
X6.6211Y-3.9961
X6.6237Y-4.1275
X6.6339Y-3.8705
X6.6719Y-4.3111
X6.6719Y-4.3987
X6.6829Y-4.6001
X6.7241Y-4.2816
X6.7241Y-4.4381
X6.7575Y-4.5669
X6.7752Y-4.2284
X6.791Y-4.318
X6.791Y-4.4312
X6.8119Y-4.5016
X6.8119Y-4.6074
X7.0177Y-4.5079
X7.0231Y-4.7146
X7.7867Y-4.4843
T2
X5.1926Y-3.8131
X5.1926Y-3.9131
X5.1926Y-4.0131
X5.1926Y-4.1131
X5.1926Y-4.2131
X5.1926Y-4.3131
X5.1926Y-4.4131
X5.1926Y-4.5131
X5.5906Y-4.7047
X5.6906Y-4.7047
X5.7906Y-4.7047
X5.8906Y-4.7047
X5.9906Y-4.7047
X6.0089Y-4.563
X6.1089Y-4.563
X6.1417Y-4.7047
X6.2417Y-4.7047
M30
