%TF.GenerationSoftware,KiCad,Pcbnew,9.0.6*%
%TF.CreationDate,2025-11-24T22:39:36+01:00*%
%TF.ProjectId,gift,67696674-2e6b-4696-9361-645f70636258,rev?*%
%TF.SameCoordinates,Original*%
%TF.FileFunction,Profile,NP*%
%FSLAX46Y46*%
G04 Gerber Fmt 4.6, Leading zero omitted, Abs format (unit mm)*
G04 Created by KiCad (PCBNEW 9.0.6) date 2025-11-24 22:39:36*
%MOMM*%
%LPD*%
G01*
G04 APERTURE LIST*
%TA.AperFunction,Profile*%
%ADD10C,0.050000*%
%TD*%
G04 APERTURE END LIST*
D10*
X205250000Y-94500000D02*
X205250000Y-121500000D01*
X132250000Y-121500000D02*
G75*
G02*
X130250000Y-119500000I0J2000000D01*
G01*
X130250000Y-96500000D02*
G75*
G02*
X132250000Y-94500000I2000000J0D01*
G01*
X205250000Y-121500000D02*
X177250000Y-121500000D01*
X177250000Y-101000000D02*
X177250000Y-115000000D01*
X174500000Y-98000000D02*
X177250000Y-98000000D01*
X174500000Y-119500000D02*
X174500000Y-118000000D01*
X177250000Y-101000000D02*
X174500000Y-101000000D01*
X177250000Y-118000000D02*
X177250000Y-121500000D01*
X174500000Y-118000000D02*
X177250000Y-118000000D01*
X172500000Y-94500000D02*
G75*
G02*
X174500000Y-96500000I0J-2000000D01*
G01*
X205250000Y-94500000D02*
X177250000Y-94500000D01*
X174500000Y-115000000D02*
X174500000Y-101000000D01*
X177250000Y-94500000D02*
X177250000Y-98000000D01*
X174500000Y-96500000D02*
X174500000Y-98000000D01*
X174500000Y-119500000D02*
G75*
G02*
X172500000Y-121500000I-2000000J0D01*
G01*
X132250000Y-94500000D02*
X172500000Y-94500000D01*
X172500000Y-121500000D02*
X132250000Y-121500000D01*
X130250000Y-119500000D02*
X130250000Y-96500000D01*
X174500000Y-115000000D02*
X177250000Y-115000000D01*
M02*
